<?xml version="1.0" encoding="UTF-8"?>
<svg version="1.1" xmlns="http://www.w3.org/2000/svg" width="512" height="512">
<path d="M0 0 C168.96 0 337.92 0 512 0 C512 168.96 512 337.92 512 512 C343.04 512 174.08 512 0 512 C0 343.04 0 174.08 0 0 Z " fill="#BDBBC1" transform="translate(0,0)"/>
<path d="M0 0 C0.99 0 1.98 0 3 0 C13.36165694 13.57440889 16.97137183 27.08692044 15.45703125 44.02734375 C14.87585415 47.80747856 13.79663272 50.64107796 12 54 C11.34 54 10.68 54 10 54 C9.87753906 54.56203125 9.75507813 55.1240625 9.62890625 55.703125 C8.9480131 58.18986519 8.00647675 60.40514776 6.9375 62.75 C6.57527344 63.54921875 6.21304688 64.3484375 5.83984375 65.171875 C5.56269531 65.77515625 5.28554688 66.3784375 5 67 C5.91136719 66.96519531 6.82273437 66.93039063 7.76171875 66.89453125 C35.63020334 66.31220471 68.08442258 72.28382114 89.078125 91.9375 C92.6447709 95.76511999 94.74728704 99.17503014 95.21875 104.4453125 C94.97535227 111.07790059 92.6905884 115.39609599 88 120 C74.80382338 131.56856471 56.30166419 136.59538836 39.4375 139.6875 C38.46598999 139.86684082 38.46598999 139.86684082 37.47485352 140.04980469 C1.00379074 146.25955998 -41.62774966 144.1341136 -74 125 C-80.02434085 120.66748742 -86.00543752 115.49572671 -87.37890625 107.90625 C-87.91309809 100.90492718 -85.73709289 96.93326448 -81.38671875 91.53515625 C-63.77897203 72.83232871 -33.34543071 68.19580831 -9 67 C-5.66425747 66.9356862 -2.33559295 66.932234 1 67 C0.36569047 64.97802995 0.36569047 64.97802995 -1 63 C-3.40404738 62.08400573 -3.40404738 62.08400573 -6.125 61.75 C-7.03507812 61.60046875 -7.94515625 61.4509375 -8.8828125 61.296875 C-9.58148438 61.19890625 -10.28015625 61.1009375 -11 61 C-10.01 60.67 -9.02 60.34 -8 60 C-8 59.34 -8 58.68 -8 58 C-7.01 58 -6.02 58 -5 58 C-5.52400391 56.66195312 -5.52400391 56.66195312 -6.05859375 55.296875 C-6.51363281 54.12640625 -6.96867187 52.9559375 -7.4375 51.75 C-7.88996094 50.58984375 -8.34242188 49.4296875 -8.80859375 48.234375 C-12.51680737 38.16748688 -12.29150043 25.93297109 -8.15234375 15.95703125 C-7.1564995 13.93712045 -6.08583174 11.97290106 -5 10 C-4.07702784 8.16983299 -3.16047127 6.33641797 -2.25 4.5 C-1.5 3 -0.75 1.5 0 0 Z " fill="#F9FAF9" transform="translate(251,112)"/>
<path d="M0 0 C-0.87011719 0.78310547 -0.87011719 0.78310547 -1.7578125 1.58203125 C-2.53898437 2.31808594 -3.32015625 3.05414063 -4.125 3.8125 C-5.27355469 4.87404297 -5.27355469 4.87404297 -6.4453125 5.95703125 C-13.78422343 14.69863922 -15.94128002 22.1194905 -15.5625 33.4375 C-15.54026367 34.66452637 -15.51802734 35.89155273 -15.49511719 37.15576172 C-15.23494776 46.82623415 -14.30643552 56.24796932 -12.43994141 65.73681641 C-12.00800922 67.95879831 -11.63230135 70.18504735 -11.26171875 72.41796875 C-7.37815693 94.05632927 2.9670618 112.70198721 16.89453125 129.41015625 C21.04849516 134.51976307 24.50231835 139.48307002 26.75 145.6875 C29.24993612 151.44735281 33.39556746 153.56240946 39 156 C52.69035173 161.32114334 65.40927783 164.36412149 80.17504883 164.31567383 C82.16688509 164.31253251 84.15870307 164.33678786 86.15039062 164.36132812 C103.4363092 164.36986438 124.09663596 161.01676084 138 150 C140.77867972 146.82286809 143.00784295 143.4808524 145.1875 139.875 C147.66720605 135.91802226 150.29968228 132.31640966 153.3125 128.75 C162.99981609 117.09881574 169.87639269 105.24930268 175 91 C175.24089355 90.33403809 175.48178711 89.66807617 175.72998047 88.98193359 C178.65852879 80.78159184 181.05566068 72.48870095 183 64 C191.52867449 61.1571085 198.79511372 61.17678074 207 65 C213.26708339 68.76025004 217.65130434 72.95391303 220 80 C220.61067545 86.61173616 219.94401365 92.047411 217 98 C216.2575 99.5159375 216.2575 99.5159375 215.5 101.0625 C210.40609181 107.04784212 203.84270887 111.10930887 196 112 C196 112.99 196 113.98 196 115 C196.99 115.33 197.98 115.66 199 116 C203.81673562 122.37509127 205.00414191 128.11353715 204 136 C201.88604929 142.06116158 198.88135505 146.79976426 194 151 C193.50628906 151.50660156 193.01257813 152.01320313 192.50390625 152.53515625 C174.40793746 170.22809678 142.3240265 177.3610726 118 180 C117.24235352 180.08540039 116.48470703 180.17080078 115.70410156 180.25878906 C105.40862364 181.27846898 95.0857154 181.24360575 84.75 181.25 C83.77023193 181.25067474 82.79046387 181.25134949 81.78100586 181.25204468 C45.72340915 181.21261451 3.72210261 176.3496013 -23.875 150.625 C-29.81534115 144.37975638 -32.17104404 139.08007017 -32.5 130.4375 C-32.20737126 121.77972559 -28.86387903 116.17250424 -23 110 C-22.34 110 -21.68 110 -21 110 C-21 109.34 -21 108.68 -21 108 C-18.8125 106.2734375 -18.8125 106.2734375 -16 104.375 C-14.6078125 103.42753906 -14.6078125 103.42753906 -13.1875 102.4609375 C-12.465625 101.97882813 -11.74375 101.49671875 -11 101 C-12.04027344 100.18208984 -12.04027344 100.18208984 -13.1015625 99.34765625 C-27.1232599 87.9904593 -39.69430439 74.81820255 -42 56 C-42.94544336 40.45443139 -40.52994353 28.69237345 -29.96484375 16.6875 C-24.34720863 10.82217374 -9.04918353 -4.52459177 0 0 Z " fill="#FBFCFC" transform="translate(170,194)"/>
<path d="M0 0 C0.97799561 -0.0093457 1.95599121 -0.01869141 2.96362305 -0.02832031 C4.33514526 -0.02203613 4.33514526 -0.02203613 5.734375 -0.015625 C6.96752441 -0.01224121 6.96752441 -0.01224121 8.22558594 -0.00878906 C10.25 0.25 10.25 0.25 12.25 2.25 C12.25 3.24 12.25 4.23 12.25 5.25 C11.42089111 5.31469482 10.59178223 5.37938965 9.73754883 5.44604492 C-33.08948641 8.52217008 -33.08948641 8.52217008 -69.19921875 29.78515625 C-73.42519202 35.02890318 -75.85018431 39.20180248 -75.203125 46.0390625 C-73.84830258 52.64966155 -70.03183852 57.25927756 -64.75 61.25 C-29.59227446 82.59649924 19.54944156 84.44124065 59.0625 75.5 C68.88119957 73.09570414 78.89072773 69.83674345 87.6875 64.8125 C92.24737915 62.812553 95.47728008 63.23358742 100.25 64.25 C100.25 65.24 100.25 66.23 100.25 67.25 C100.91 67.58 101.57 67.91 102.25 68.25 C98.6130661 73.16439821 95.36052749 75.75266812 89.8125 78.25 C89.08530762 78.58467285 88.35811523 78.9193457 87.60888672 79.26416016 C64.11595991 89.59120798 39.20341912 91.4367396 13.90039062 91.49023438 C11.14942872 91.49991404 8.39922478 91.5310512 5.6484375 91.5625 C-10.65172503 91.66031425 -27.01827282 90.25828043 -42.6875 85.5 C-43.54883545 85.24541016 -44.4101709 84.99082031 -45.29760742 84.72851562 C-56.12550232 81.39032726 -66.04991944 76.62615526 -74.75 69.25 C-73.42765802 75.44847803 -71.65497422 79.32182023 -66.29296875 82.84765625 C-55.92182748 88.56691849 -45.27816058 91.84450533 -33.75 94.25 C-33.08497467 94.38984818 -32.41994934 94.52969635 -31.73477173 94.67378235 C-15.50036036 97.92986448 0.82126293 97.6089359 17.29125977 97.45599365 C21.01964087 97.42477614 24.74808716 97.41149232 28.4765625 97.39648438 C35.73454735 97.3647341 42.99221866 97.31383829 50.25 97.25 C50.25 98.57 50.25 99.89 50.25 101.25 C50.58 100.59 50.91 99.93 51.25 99.25 C53.3125 98.625 53.3125 98.625 55.25 98.25 C55.25 102.25 55.25 102.25 54.25 105.25 C53.26 105.745 53.26 105.745 52.25 106.25 C52.72050781 106.7346875 53.19101562 107.219375 53.67578125 107.71875 C61.22343992 115.8445937 62.61953382 121.62191621 62.35546875 132.6875 C62.32066406 133.533125 62.28585937 134.37875 62.25 135.25 C61.816875 134.321875 61.816875 134.321875 61.375 133.375 C60.31279958 131.11674235 60.31279958 131.11674235 58.25 129.25 C58.125 126.625 58.125 126.625 58.25 124.25 C57.26 124.91 56.27 125.57 55.25 126.25 C54.26 126.25 53.27 126.25 52.25 126.25 C51.0390625 124.640625 51.0390625 124.640625 49.875 122.5 C45.18423741 114.64055118 38.39915056 112.06517214 29.89453125 109.5546875 C14.03834064 105.97507054 -4.11015005 106.64451186 -18.44140625 114.77734375 C-21.88947597 117.20147863 -24.24900729 119.23800079 -25.75 123.25 C-26.11550208 126.65166138 -26.25420198 130.03193952 -26.40625 133.44921875 C-26.5196875 134.37347656 -26.633125 135.29773438 -26.75 136.25 C-27.41 136.58 -28.07 136.91 -28.75 137.25 C-28.75 134.94 -28.75 132.63 -28.75 130.25 C-32.02773504 131.00150023 -32.02773504 131.00150023 -33.75 134.25 C-34.08 133.59 -34.41 132.93 -34.75 132.25 C-35.41 132.91 -36.07 133.57 -36.75 134.25 C-37.58304244 124.68543863 -36.47057275 117.18795071 -30.75 109.25 C-28.546875 107.91796875 -28.546875 107.91796875 -26.75 107.25 C-26.75 106.59 -26.75 105.93 -26.75 105.25 C-27.884375 105.13914062 -29.01875 105.02828125 -30.1875 104.9140625 C-34.89002929 104.32108099 -39.24804429 103.07718345 -43.75 101.625 C-44.56509033 101.3657373 -45.38018066 101.10647461 -46.2199707 100.83935547 C-54.31196075 98.19249416 -62.04030725 94.84431193 -69.75 91.25 C-70.245 91.745 -70.245 91.745 -70.75 92.25 C-66.82055669 115.06787082 -56.95356436 137.33670296 -39.75 153.25 C-39.24855469 153.76820313 -38.74710938 154.28640625 -38.23046875 154.8203125 C-25.12410833 167.55546882 -5.38199734 173.14677472 12.4375 173.5625 C29.63041829 173.28151257 48.0916473 169.35317803 62.25 159.25 C63.13042969 158.62609375 64.01085937 158.0021875 64.91796875 157.359375 C74.09665079 150.36855934 81.43157158 141.39187563 87.125 131.375 C87.82625 130.34375 88.5275 129.3125 89.25 128.25 C91.9375 127.875 91.9375 127.875 94.25 128.25 C94.91 127.59 95.57 126.93 96.25 126.25 C97.0546875 128.2734375 97.0546875 128.2734375 97.25 131.25 C95.96336849 134.02806098 94.1820645 136.41313417 92.375 138.875 C91.87266846 139.58285645 91.37033691 140.29071289 90.8527832 141.02001953 C87.19659663 146.11498055 83.28962821 150.93731748 79.23828125 155.72265625 C77.2589843 158.23857988 75.69408728 160.77623155 74.125 163.5625 C67.92352401 174.17205216 57.49895276 178.28769974 45.99609375 181.48046875 C25.15505309 186.92262553 0.90631422 188.28047502 -19.75 181.25 C-21.52503906 180.67185547 -21.52503906 180.67185547 -23.3359375 180.08203125 C-26.55913227 178.9424807 -29.64413268 177.67599085 -32.75 176.25 C-33.59304687 175.86714844 -34.43609375 175.48429688 -35.3046875 175.08984375 C-41.08186421 171.90947879 -43.17722181 167.98613345 -45.81054688 162.046875 C-48.22264201 156.8107314 -51.39801862 152.68806879 -55.125 148.3125 C-70.95941532 129.51547301 -79.33496498 108.30839939 -83.75 84.25 C-83.88132324 83.56437988 -84.01264648 82.87875977 -84.14794922 82.17236328 C-85.86690784 72.85430565 -86.05539401 63.38786149 -86.25 53.9375 C-86.29294189 52.75655762 -86.33588379 51.57561523 -86.38012695 50.35888672 C-86.46063108 39.65860956 -82.87097499 32.52209676 -75.8125 24.625 C-61.95647467 11.63060986 -43.98388638 5.91172309 -25.75 2.25 C-24.62078125 2.02183594 -23.4915625 1.79367188 -22.328125 1.55859375 C-14.89211293 0.28664432 -7.52657028 0.05090844 0 0 Z " fill="#070A1E" transform="translate(239.75,173.75)"/>
<path d="M0 0 C-1.28062485 1.7074998 -2.61767557 3.37373596 -4 5 C-4.66 5 -5.32 5 -6 5 C-5.979375 5.804375 -5.95875 6.60875 -5.9375 7.4375 C-6 10 -6 10 -7 11 C-7.71368094 18.51404072 -8.09770142 25.24781614 -3.42578125 31.47265625 C-1.47052357 33.56719255 0.73790846 35.24687906 3 37 C4.79875167 39.26199183 6.38401811 41.59911263 8 44 C7.25943359 42.55367187 7.25943359 42.55367187 6.50390625 41.078125 C5.85655763 39.80219148 5.20943401 38.52614379 4.5625 37.25 C4.07426758 36.29867187 4.07426758 36.29867187 3.57617188 35.328125 C-0.54047301 27.1797145 -1.23980527 19.67566549 1.25 10.8125 C2.67256503 6.50396573 4.58420596 2.83194917 7 -1 C19.46484007 -1.65732555 31.68334553 0.30135882 44 2 C44 2.66 44 3.32 44 4 C45.0725 4.0825 46.145 4.165 47.25 4.25 C56.81491088 5.46673778 65.5897693 9.45996396 74 14 C74 14.66 74 15.32 74 16 C74.5775 16.2475 75.155 16.495 75.75 16.75 C78.99970334 18.55539075 81.3878659 20.17529454 82.61328125 23.828125 C83.33341728 27.63975408 83.21023639 29.56200752 81.5 33.125 C71.53044411 44.58998927 58.57647214 49.14466755 44 52 C42.86046875 52.226875 41.7209375 52.45375 40.546875 52.6875 C19.70805728 55.99233453 -3.17942414 54.92109572 -24 52 C-24.93457031 51.89042969 -25.86914062 51.78085938 -26.83203125 51.66796875 C-32.42545003 50.82385414 -37.57662168 48.75901229 -42.8125 46.6875 C-43.54299561 46.40366455 -44.27349121 46.1198291 -45.02612305 45.82739258 C-49.63926575 43.91504104 -52.63432164 41.80309504 -56 38 C-57.3921875 36.6078125 -57.3921875 36.6078125 -58.8125 35.1875 C-61.00589763 31.99140631 -61.80550621 29.98806777 -61.55859375 26.08984375 C-59.65028187 18.95035524 -53.42639437 14.31086577 -47.375 10.6875 C-35.12792923 4.07448136 -13.86191553 -4.15235681 0 0 Z " fill="#D69666" transform="translate(244,192)"/>
<path d="M0 0 C3.60730393 3.28272034 6.05522581 6.14874378 7 11 C8.98 10.34 10.96 9.68 13 9 C15.40350512 13.90715628 16.75523879 17.43011396 16 23 C12.89813889 32.0058866 7.0916165 39.02404893 -1.12109375 43.82421875 C-11.58425095 48.91407025 -21.32572789 50.37586167 -32.875 50.3125 C-33.93275635 50.30758545 -34.9905127 50.3026709 -36.08032227 50.29760742 C-50.84490994 50.07557499 -62.00052736 46.34528731 -72.91796875 36.25 C-77.4504301 31.35188041 -81.18197096 25.72352633 -82 19 C-81.0625 16.6875 -81.0625 16.6875 -80 15 C-79.67 15.66 -79.34 16.32 -79 17 C-78.01 16.01 -77.02 15.02 -76 14 C-75.01 14.33 -74.02 14.66 -73 15 C-73 16.98 -73 18.96 -73 21 C-72.97421875 20.13117188 -72.9484375 19.26234375 -72.921875 18.3671875 C-72.33502179 6.44339734 -72.33502179 6.44339734 -68 2 C-51.18520957 -12.62960842 -18.09425248 -12.3837728 0 0 Z " fill="#080D20" transform="translate(285,289)"/>
<path d="M0 0 C1.04414063 0.49628906 2.08828125 0.99257813 3.1640625 1.50390625 C16.49642988 7.70418626 30.49560081 13.26909985 45 16 C45 16.66 45 17.32 45 18 C43.88625 19.0209375 43.88625 19.0209375 42.75 20.0625 C37.1462716 25.60236825 35.71901096 31.68812879 35.4375 39.4375 C35.73124907 49.22913551 39.38835929 56.08570728 45.984375 63.18359375 C56.92740268 73.04504311 69.53977729 75.17877136 83.75 75.1875 C84.78382813 75.19974609 85.81765625 75.21199219 86.8828125 75.22460938 C100.49652225 75.25032797 113.74826393 72.19101009 124.0625 62.6875 C130.93155406 55.01850547 133.32951538 46.33276134 133.20703125 36.2890625 C132.71831787 28.52497447 129.69977817 24.14614212 124.42578125 18.56640625 C123 17 123 17 123 16 C123.70640625 15.93683594 124.4128125 15.87367188 125.140625 15.80859375 C139.68368143 14.07292747 153.51932849 8.56449569 166.56640625 2.06640625 C169 1 169 1 172 1 C171.11023477 12.53626638 168.67348045 22.41712154 164 33 C163.72494629 33.62712891 163.44989258 34.25425781 163.16650391 34.90039062 C159.44063044 43.22855719 154.99603107 50.154232 149 57 C148.44699219 57.69609375 147.89398438 58.3921875 147.32421875 59.109375 C134.88462238 74.42878247 114.74264274 82.47291029 95.5234375 84.71875 C72.39168544 86.56518697 52.09998271 81.84082184 34 67 C33.00871094 66.21496094 32.01742187 65.42992187 30.99609375 64.62109375 C13.41838055 49.24345939 4.38200591 25.27723674 0 3 C0 2.01 0 1.02 0 0 Z " fill="#F7F8F9" transform="translate(168,263)"/>
<path d="M0 0 C23.34489133 0.00936042 47.21441184 3.55579733 68.15429688 14.14160156 C69.25902344 14.69976562 70.36375 15.25792969 71.50195312 15.83300781 C81.80322727 21.44596503 91.02269591 29.31373495 94.69628906 40.8425293 C95.83095089 46.53821717 95.39879138 52.59204618 95.40429688 58.39160156 C95.40530396 59.11879395 95.40631104 59.84598633 95.40734863 60.59521484 C95.39745832 71.11153143 94.86096351 80.90738135 92.15429688 91.14160156 C91.85646722 92.46473553 91.56368169 93.78901284 91.27539062 95.11425781 C88.44207965 107.76296753 83.52618852 119.36476218 78.15429688 131.14160156 C77.16429687 130.48160156 76.17429687 129.82160156 75.15429688 129.14160156 C72.507974 129.45377796 72.507974 129.45377796 70.15429688 130.14160156 C68.78416453 126.03120452 70.08846432 124.58220108 71.90429688 120.70410156 C76.20809269 111.17037666 78.12899911 101.35855035 80.15429688 91.14160156 C79.19728882 91.55671997 79.19728882 91.55671997 78.22094727 91.98022461 C56.66325058 101.28117932 56.66325058 101.28117932 46.46679688 104.26660156 C45.79205322 104.46600342 45.11730957 104.66540527 44.42211914 104.87084961 C40.92359132 105.84179087 37.78410612 106.34981242 34.15429688 106.14160156 C33.82429687 104.49160156 33.49429688 102.84160156 33.15429688 101.14160156 C31.66929687 101.63660156 31.66929687 101.63660156 30.15429688 102.14160156 C30.15429688 100.82160156 30.15429688 99.50160156 30.15429688 98.14160156 C29.27193359 98.21016357 28.38957031 98.27872559 27.48046875 98.34936523 C15.20756431 99.21701297 2.95564146 99.4249964 -9.34570312 99.45410156 C-10.40852509 99.45671997 -11.47134705 99.45933838 -12.56637573 99.46203613 C-28.05843724 99.46612433 -42.74288006 98.87350947 -57.84570312 95.14160156 C-59.26307591 94.83544394 -60.68102391 94.53193386 -62.09960938 94.23144531 C-72.38676333 91.83353152 -87.48576885 87.24288682 -93.84570312 78.14160156 C-94.67184237 75.33170822 -94.79451943 73.11025604 -94.84570312 70.14160156 C-91.6944819 71.61602617 -88.95671473 73.41910288 -86.09570312 75.39160156 C-64.40859587 89.22648033 -37.15104305 91.51592301 -12.09106445 91.34741211 C-9.2832732 91.32910202 -6.47581375 91.32690379 -3.66796875 91.32714844 C16.59728525 91.34769577 16.59728525 91.34769577 36.59179688 88.39160156 C37.38690674 88.21532227 38.1820166 88.03904297 39.0012207 87.85742188 C50.20466844 85.29854771 60.74968387 82.07938491 71.09179688 77.01660156 C71.78490967 76.67983398 72.47802246 76.34306641 73.19213867 75.99609375 C77.22105225 74.04655856 77.22105225 74.04655856 79.15429688 70.14160156 C79.81429687 69.81160156 80.47429687 69.48160156 81.15429688 69.14160156 C80.82429687 67.82160156 80.49429688 66.50160156 80.15429688 65.14160156 C77.51429688 64.81160156 74.87429688 64.48160156 72.15429688 64.14160156 C77.15429687 59.14160156 77.15429687 59.14160156 79.77929688 56.76660156 C83.63060656 52.50989086 85.48427406 48.45981436 85.21679688 42.70410156 C84.14230904 35.98283721 79.90389492 31.35718 74.77929688 27.14160156 C51.45564949 10.89913744 23.69815973 8.07895876 -3.84570312 6.14160156 C-2.78166846 0.21340843 -2.78166846 0.21340843 0 0 Z " fill="#080D22" transform="translate(259.845703125,172.8583984375)"/>
<path d="M0 0 C1.27875 -0.12375 2.5575 -0.2475 3.875 -0.375 C11.93154988 -0.55464863 19.97784988 4.48892494 27 8 C27 8.66 27 9.32 27 10 C27.5775 10.2475 28.155 10.495 28.75 10.75 C31.99970334 12.55539075 34.3878659 14.17529454 35.61328125 17.828125 C36.33341728 21.63975408 36.21023639 23.56200752 34.5 27.125 C26.79452598 35.98629512 16.6863854 42.0522691 5 44 C-2.06918239 44.46540881 -2.06918239 44.46540881 -5 43 C-5 43.66 -5 44.32 -5 45 C-11.14483771 45.08948793 -16.9354449 45.0322647 -23 44 C-26.66824144 43.91302635 -30.33144489 43.9412509 -34 44 C-33.67 41.36 -33.34 38.72 -33 36 C-30.03 35.505 -30.03 35.505 -27 35 C-27.33451172 34.12601563 -27.33451172 34.12601563 -27.67578125 33.234375 C-28 31 -28 31 -26.85546875 29.078125 C-26.30503906 28.47484375 -25.75460937 27.8715625 -25.1875 27.25 C-24.64480469 26.63640625 -24.10210937 26.0228125 -23.54296875 25.390625 C-22 24 -22 24 -20 24 C-18.20760452 19.42098967 -17.83074521 15.77281044 -18 10.875 C-18.25248661 3.53710788 -18.25248661 3.53710788 -16 0 C-14.02 0 -12.04 0 -10 0 C-10 0.66 -10 1.32 -10 2 C-9.46375 1.484375 -8.9275 0.96875 -8.375 0.4375 C-5.1393703 -1.52090745 -3.66699629 -0.7610747 0 0 Z " fill="#D59364" transform="translate(291,198)"/>
<path d="M0 0 C1.33203125 1.953125 1.33203125 1.953125 2 4 C1.67 4.66 1.34 5.32 1 6 C1.350625 6.804375 1.70125 7.60875 2.0625 8.4375 C2.371875 9.283125 2.68125 10.12875 3 11 C2.34 11.99 1.68 12.98 1 14 C-0.11375 13.2884375 -0.11375 13.2884375 -1.25 12.5625 C-6.1292062 10.06396929 -11.63286406 10.29817422 -17 10 C-17 14.95 -17 19.9 -17 25 C-12.38 25 -7.76 25 -3 25 C-7.43841754 29.80828567 -9.5049648 30.87116005 -15.93359375 31.203125 C-17.43482798 31.22428777 -18.93615165 31.23974314 -20.4375 31.25 C-21.18837891 31.270625 -21.93925781 31.29125 -22.71289062 31.3125 C-27.27557069 31.34460329 -30.31987264 31.01433891 -34 28 C-34 27.34 -34 26.68 -34 26 C-33.08476562 25.89042969 -32.16953125 25.78085937 -31.2265625 25.66796875 C-30.03804687 25.50941406 -28.84953125 25.35085938 -27.625 25.1875 C-26.44164062 25.03667969 -25.25828125 24.88585937 -24.0390625 24.73046875 C-20.70467916 24.29300666 -20.70467916 24.29300666 -19 21 C-19.12815124 17.41176525 -19.26868927 14.94460969 -21.5 12.0625 C-25.86791746 10.20613508 -30.70685097 10.16275314 -35.171875 11.79296875 C-37.33248003 13.21952207 -37.860527 14.2234229 -38.75 16.625 C-39.1625 17.73875 -39.575 18.8525 -40 20 C-43.3 20 -46.6 20 -50 20 C-50 18.35 -50 16.7 -50 15 C-46.7 15 -43.4 15 -40 15 C-40.66 13.68 -41.32 12.36 -42 11 C-43.43655854 10.91868537 -44.8744483 10.86066441 -46.3125 10.8125 C-47.11300781 10.77769531 -47.91351563 10.74289062 -48.73828125 10.70703125 C-51.06141957 10.81881161 -51.06141957 10.81881161 -52.765625 12.328125 C-54.70147097 14.9500936 -54.45134843 16.84056096 -54 20 C-52.73637301 22.51707157 -52.73637301 22.51707157 -50 24 C-46.67295231 24.62056219 -43.37912113 24.87102591 -40 25 C-39.67 24.01 -39.34 23.02 -39 22 C-38.74347656 22.60328125 -38.48695313 23.2065625 -38.22265625 23.828125 C-35.58437948 29.33563881 -33.26839647 32.31517313 -27.453125 34.4140625 C-19.76598576 36.25016264 -12.20895799 35.16717088 -5 32 C-2.68581709 29.93832739 -2.68581709 29.93832739 -1 28 C0.32 28 1.64 28 3 28 C3.33 27.34 3.66 26.68 4 26 C7.96 26 11.92 26 16 26 C16.495 27.98 16.495 27.98 17 30 C11.67605689 38.44487528 2.08770019 42.68196854 -7.24609375 45.3046875 C-21.29484673 47.90684986 -35.63099186 46.75084432 -48 39.1875 C-53.68819 35.04399279 -57.47336916 29.93923108 -59 23 C-59.53564004 18.43469871 -59.47076907 15.04387924 -57.5625 10.8125 C-45.21382574 -2.74092297 -16.9946229 -7.55316573 0 0 Z " fill="#F6F7F8" transform="translate(272,283)"/>
<path d="M0 0 C12.46484007 -0.65732555 24.68334553 1.30135882 37 3 C37 3.66 37 4.32 37 5 C39.64 5.33 42.28 5.66 45 6 C45 6.33 45 6.66 45 7 C43.56274129 7.16873478 42.12518162 7.33490737 40.6875 7.5 C39.88699219 7.5928125 39.08648437 7.685625 38.26171875 7.78125 C36 8 36 8 33 8 C32.01 8.33 31.02 8.66 30 9 C30 8.34 30 7.68 30 7 C28.02 7 26.04 7 24 7 C23.33906522 11.46130976 22.97466425 15.61492759 23.125 20.125 C23.19191089 24.46082562 22.35476929 27.27161529 20 31 C19.34 31 18.68 31 18 31 C17.731875 31.598125 17.46375 32.19625 17.1875 32.8125 C16 35 16 35 14.375 36.5 C12.54951691 38.152294 12.54951691 38.152294 13 42 C12.195625 42.20625 11.39125 42.4125 10.5625 42.625 C9.716875 43.07875 8.87125 43.5325 8 44 C7.2984815 47.04166843 7.2984815 47.04166843 7 50 C7.98742187 49.98839844 8.97484375 49.97679687 9.9921875 49.96484375 C11.27351563 49.95582031 12.55484375 49.94679687 13.875 49.9375 C15.15117187 49.92589844 16.42734375 49.91429687 17.7421875 49.90234375 C21 50 21 50 23 51 C25.0374763 51.22858114 27.08040303 51.41024278 29.125 51.5625 C30.22070312 51.64628906 31.31640625 51.73007813 32.4453125 51.81640625 C33.70988281 51.90728516 33.70988281 51.90728516 35 52 C35 51.34 35 50.68 35 50 C36.98 50.33 38.96 50.66 41 51 C23.40010862 61.16692755 -11.71318276 55.59630232 -31 53 C-30.67 52.01 -30.34 51.02 -30 50 C-27.03 50.66 -24.06 51.32 -21 52 C-21 51.34 -21 50.68 -21 50 C-18.69 50.33 -16.38 50.66 -14 51 C-14 50.67 -14 50.34 -14 50 C-12.35 50 -10.7 50 -9 50 C-9 49.01 -9 48.02 -9 47 C-8.34 47 -7.68 47 -7 47 C-7 46.01 -7 45.02 -7 44 C-6.34 44 -5.68 44 -5 44 C-5 44.66 -5 45.32 -5 46 C-4.34 45.34 -3.68 44.68 -3 44 C-3.598125 43.401875 -4.19625 42.80375 -4.8125 42.1875 C-5.534375 41.465625 -6.25625 40.74375 -7 40 C-7.556875 39.505 -8.11375 39.01 -8.6875 38.5 C-10.25095561 36.71319359 -10.49805822 35.28922978 -11 33 C-5.63885521 36.46897604 -2.46897604 39.63885521 1 45 C0.50628906 44.03578125 0.01257813 43.0715625 -0.49609375 42.078125 C-1.14344237 40.80219148 -1.79056599 39.52614379 -2.4375 38.25 C-2.76298828 37.61578125 -3.08847656 36.9815625 -3.42382812 36.328125 C-7.54047301 28.1797145 -8.23980527 20.67566549 -5.75 11.8125 C-4.32743497 7.50396573 -2.41579404 3.83194917 0 0 Z " fill="#E09B68" transform="translate(251,191)"/>
<path d="M0 0 C-0.11612313 6.73514173 -0.11612313 6.73514173 -2.1328125 9.62109375 C-16.64352062 23.07448897 -39.14826411 26.88768384 -58 29 C-58.81243164 29.09498779 -59.62486328 29.18997559 -60.46191406 29.2878418 C-71.35024726 30.38200286 -82.31784239 30.28705285 -93.25 30.3125 C-94.85921829 30.31642761 -94.85921829 30.31642761 -96.50094604 30.32043457 C-112.06823738 30.32451187 -126.82407417 29.7499716 -142 26 C-143.41737278 25.69384238 -144.83532079 25.3903323 -146.25390625 25.08984375 C-156.54106021 22.69192996 -171.64006572 18.10128526 -178 9 C-178.82613924 6.19010665 -178.9488163 3.96865448 -179 1 C-175.84877877 2.47442461 -173.1110116 4.27750132 -170.25 6.25 C-148.56289275 20.08487877 -121.30533992 22.37432145 -96.24536133 22.20581055 C-93.43757008 22.18750046 -90.63011062 22.18530223 -87.82226562 22.18554688 C-67.55701162 22.20609421 -67.55701162 22.20609421 -47.5625 19.25 C-46.76739014 19.0737207 -45.97228027 18.89744141 -45.15307617 18.71582031 C-32.64684956 15.85939068 -10.22235143 0 0 0 Z " fill="#F4F5F5" transform="translate(344,242)"/>
<path d="M0 0 C7.53075177 1.83039105 14.00261406 5.1692615 18.20703125 11.9453125 C19.96855 16.50964187 19.49240325 21.49201504 18 26.0625 C17.67 26.701875 17.34 27.34125 17 28 C16.01 27.01 16.01 27.01 15 26 C8.529497 25.25414861 2.512782 25.23517327 -3 29 C-3.78375 29.680625 -4.5675 30.36125 -5.375 31.0625 C-11.14324382 35.32001329 -19.02703012 36.00814022 -26 35 C-31.38001006 33.26850251 -35.73470809 31.19462541 -38.625 26.1875 C-39.07875 25.135625 -39.5325 24.08375 -40 23 C-40.33 23.33 -40.66 23.66 -41 24 C-46.07728536 24.65816662 -49.81978021 24.80254946 -54.125 21.875 C-56.3337936 18.48818314 -56.75856436 16.96139166 -56 13 C-54.5625 10.625 -54.5625 10.625 -52 9 C-48.95323525 8.56706718 -46.03975956 8.49532949 -43 9 C-41 11 -41 11 -41 14 C-44.3 14 -47.6 14 -51 14 C-51 15.65 -51 17.3 -51 19 C-47.7 19 -44.4 19 -41 19 C-40.9175 18.2575 -40.835 17.515 -40.75 16.75 C-39.85089597 13.45328523 -38.57630066 12.18595208 -36 10 C-32.52876063 8.26438031 -28.79525855 8.54116045 -25 9 C-22 10.5625 -22 10.5625 -20 13 C-18.92570935 16.76001729 -18.40068663 18.8613046 -20.25 22.375 C-23.30766054 25.21425622 -26.21419736 25.11410133 -30.1875 25.0625 C-31.08855469 25.05347656 -31.98960937 25.04445313 -32.91796875 25.03515625 C-33.60503906 25.02355469 -34.29210937 25.01195312 -35 25 C-35 25.66 -35 26.32 -35 27 C-30.5919236 29.18661498 -26.44968153 29.33358689 -21.625 29.3125 C-20.89539063 29.32861328 -20.16578125 29.34472656 -19.4140625 29.36132812 C-14.21965117 29.36596599 -10.6315484 28.3636455 -6 26 C-5.505 25.505 -5.505 25.505 -5 25 C-9.29 24.67 -13.58 24.34 -18 24 C-18 19.05 -18 14.1 -18 9 C-5.14285714 8.57142857 -5.14285714 8.57142857 0 12 C0.70194993 10.19747131 0.70194993 10.19747131 1 8 C0.505 7.01 0.505 7.01 0 6 C-1.24546405 3.50907189 -0.7767578 2.58919267 0 0 Z " fill="#070818" transform="translate(273,284)"/>
<path d="M0 0 C3.88791449 0.4574017 5.41315497 1.67992197 8.1875 4.375 C10.02892662 8.05785324 9.55706872 12.34670091 9.1875 16.375 C7.6875 20 7.6875 20 6.1875 22.375 C5.5275 22.375 4.8675 22.375 4.1875 22.375 C3.919375 22.973125 3.65125 23.57125 3.375 24.1875 C2.1875 26.375 2.1875 26.375 0.5625 27.875 C-1.26298309 29.527294 -1.26298309 29.527294 -0.8125 33.375 C-1.616875 33.58125 -2.42125 33.7875 -3.25 34 C-4.095625 34.45375 -4.94125 34.9075 -5.8125 35.375 C-6.5140185 38.41666843 -6.5140185 38.41666843 -6.8125 41.375 C-5.82507813 41.36339844 -4.83765625 41.35179687 -3.8203125 41.33984375 C-2.53898437 41.33082031 -1.25765625 41.32179687 0.0625 41.3125 C1.33867187 41.30089844 2.61484375 41.28929687 3.9296875 41.27734375 C7.1875 41.375 7.1875 41.375 9.1875 42.375 C11.2249763 42.60358114 13.26790303 42.78524278 15.3125 42.9375 C16.40820312 43.02128906 17.50390625 43.10507813 18.6328125 43.19140625 C19.89738281 43.28228516 19.89738281 43.28228516 21.1875 43.375 C21.1875 42.715 21.1875 42.055 21.1875 41.375 C23.1675 41.705 25.1475 42.035 27.1875 42.375 C9.58760862 52.54192755 -25.52568276 46.97130232 -44.8125 44.375 C-44.4825 43.385 -44.1525 42.395 -43.8125 41.375 C-40.8425 42.035 -37.8725 42.695 -34.8125 43.375 C-34.8125 42.715 -34.8125 42.055 -34.8125 41.375 C-32.5025 41.705 -30.1925 42.035 -27.8125 42.375 C-27.8125 42.045 -27.8125 41.715 -27.8125 41.375 C-26.1625 41.375 -24.5125 41.375 -22.8125 41.375 C-22.8125 40.385 -22.8125 39.395 -22.8125 38.375 C-22.1525 38.375 -21.4925 38.375 -20.8125 38.375 C-20.8125 37.385 -20.8125 36.395 -20.8125 35.375 C-20.1525 35.375 -19.4925 35.375 -18.8125 35.375 C-18.8125 36.035 -18.8125 36.695 -18.8125 37.375 C-18.1525 36.715 -17.4925 36.055 -16.8125 35.375 C-17.410625 34.776875 -18.00875 34.17875 -18.625 33.5625 C-19.346875 32.840625 -20.06875 32.11875 -20.8125 31.375 C-21.369375 30.88 -21.92625 30.385 -22.5 29.875 C-24.06345561 28.08819359 -24.31055822 26.66422978 -24.8125 24.375 C-19.45135521 27.84397604 -16.28147604 31.01385521 -12.8125 36.375 C-13.10125 35.82070312 -13.39 35.26640625 -13.6875 34.6953125 C-14.05875 33.97085938 -14.43 33.24640625 -14.8125 32.5 C-15.18375 31.78070313 -15.555 31.06140625 -15.9375 30.3203125 C-16.8125 28.375 -16.8125 28.375 -16.8125 26.375 C-15.4925 26.375 -14.1725 26.375 -12.8125 26.375 C-12.3175 27.365 -12.3175 27.365 -11.8125 28.375 C-10.8225 28.375 -9.8325 28.375 -8.8125 28.375 C-8.4825 27.715 -8.1525 27.055 -7.8125 26.375 C-7.1525 26.375 -6.4925 26.375 -5.8125 26.375 C-3.65490289 19.09310974 -3.09607486 12.38698079 -4.4375 4.875 C-4.56125 4.05 -4.685 3.225 -4.8125 2.375 C-2.8125 0.375 -2.8125 0.375 0 0 Z " fill="#E1A173" transform="translate(264.8125,199.625)"/>
<path d="M0 0 C19.90164982 2.15152971 19.90164982 2.15152971 25.9375 8.9375 C30.72759104 16.05005942 30.69560672 22.60924392 30 31 C28.33875193 39.42894619 25.22033099 46.22053015 20 53 C19.22849609 54.11181641 19.22849609 54.11181641 18.44140625 55.24609375 C17.96574219 55.82488281 17.49007813 56.40367187 17 57 C16.34 57 15.68 57 15 57 C14.98598145 55.48817139 14.98598145 55.48817139 14.97167969 53.94580078 C14.93143322 50.16200558 14.8655839 46.37899422 14.79248047 42.59570312 C14.76446976 40.96657475 14.74315749 39.3373155 14.72900391 37.70800781 C14.61822029 25.66952143 14.24047598 15.59030282 5.3125 6.5 C1.04067797 2.08135593 1.04067797 2.08135593 0 0 Z " fill="#F9FAFA" transform="translate(340,194)"/>
<path d="M0 0 C1.8059082 0.00805664 1.8059082 0.00805664 3.98828125 0.34765625 C9.05832081 1.03750579 14.07785945 1.25182374 19.1875 1.4375 C27.58921673 1.79202459 35.7022418 2.59988199 44 4 C45.08023438 4.1546875 46.16046875 4.309375 47.2734375 4.46875 C53.0278977 5.32126262 57.77987187 6.44111366 63 9 C64.24966545 9.4800385 65.49966727 9.95920224 66.75 10.4375 C69.95360038 11.97769249 71.2329823 12.9856757 73 16 C71.783125 15.5875 70.56625 15.175 69.3125 14.75 C58.25271476 11.04453638 58.25271476 11.04453638 47 8 C47 7.34 47 6.68 47 6 C45.40671875 5.90912109 45.40671875 5.90912109 43.78125 5.81640625 C40.86820824 5.6450914 37.9553159 5.47182698 35.04296875 5.2890625 C34.03399536 5.2264624 34.03399536 5.2264624 33.00463867 5.16259766 C30.92600664 4.99399835 28.87765818 4.72604505 26.8125 4.4375 C21.21122597 3.79473085 15.63156867 3.92273762 10 4 C9.18082358 5.72601379 8.36993984 7.4559647 7.5625 9.1875 C7.11003906 10.15042969 6.65757812 11.11335937 6.19140625 12.10546875 C3.10228032 19.61052552 2.80411459 27.60906537 5.75 35.1875 C7.06999178 38.19519556 8.54885621 41.00561275 10.25 43.8125 C11.98289728 46.96884861 12.42596811 48.48576306 12 52 C11.7525 51.443125 11.505 50.88625 11.25 50.3125 C10.00800235 47.84535202 10.00800235 47.84535202 7.875 45.375 C6 43 6 43 6 41 C5.443125 40.79375 4.88625 40.5875 4.3125 40.375 C0.02956579 37.82839047 -3.20166622 33.63354469 -5 29 C-5.265625 25.7578125 -5.265625 25.7578125 -5.25 22.125 C-5.25515625 20.93132812 -5.2603125 19.73765625 -5.265625 18.5078125 C-5.00134006 15.01769663 -4.25362935 12.25346663 -3 9 C-2.34 9 -1.68 9 -1 9 C-0.67 8.01 -0.34 7.02 0 6 C0.66 6 1.32 6 2 6 C2 5.34 2 4.68 2 4 C-13.07817868 5.44348516 -13.07817868 5.44348516 -28 8 C-25.00439195 4.56332083 -22.47595858 4.49732873 -18 4 C-17.67 3.67 -17.34 3.34 -17 3 C-13.81910775 2.76340471 -10.64590563 2.60374385 -7.45898438 2.48242188 C-3.27511917 2.39125865 -3.27511917 2.39125865 0 0 Z " fill="#FEF9ED" transform="translate(241,188)"/>
<path d="M0 0 C2 2 2 2 2 5 C-1.3 5 -4.6 5 -8 5 C-8 6.65 -8 8.3 -8 10 C-4.7 10 -1.4 10 2 10 C2.0825 9.2575 2.165 8.515 2.25 7.75 C3.14910403 4.45328523 4.42369934 3.18595208 7 1 C10.47123937 -0.73561969 14.20474145 -0.45883955 18 0 C21 1.5625 21 1.5625 23 4 C24.02369257 7.58292401 24.58028783 9.78333704 22.94921875 13.203125 C20.02929784 15.89483566 17.69680636 15.39254335 13.8125 15.25 C12.54019531 15.21390625 11.26789063 15.1778125 9.95703125 15.140625 C8.49330078 15.07101562 8.49330078 15.07101562 7 15 C7 15.66 7 16.32 7 17 C6.01 16.67 5.02 16.34 4 16 C3.67 15.34 3.34 14.68 3 14 C2.67 14.33 2.34 14.66 2 15 C-3.07728536 15.65816662 -6.81978021 15.80254946 -11.125 12.875 C-13.3337936 9.48818314 -13.75856436 7.96139166 -13 4 C-9.99819079 -0.95951087 -5.29137582 -0.87849097 0 0 Z " fill="#161B25" transform="translate(230,293)"/>
<path d="M0 0 C2.67836558 1.64157891 2.9364948 2.79587613 3.875 5.8125 C4.03189762 9.81338924 3.17767119 11.66090417 1 15 C-3.449343 19.01526076 -5.87798904 20.13963505 -11.8125 20.125 C-13.36904297 20.12886719 -13.36904297 20.12886719 -14.95703125 20.1328125 C-17.75342942 20.01076175 -20.27939879 19.63363355 -23 19 C-22.26825035 16.53484339 -21.51592177 14.07953292 -20.75 11.625 C-20.54503906 10.92632812 -20.34007812 10.22765625 -20.12890625 9.5078125 C-18.48721949 4.3340118 -18.48721949 4.3340118 -16 2.62890625 C-15.34 2.42136719 -14.68 2.21382813 -14 2 C-13.0925 1.443125 -12.185 0.88625 -11.25 0.3125 C-6.8505698 -1.46419297 -4.61062717 -1.05817673 0 0 Z " fill="#C2C0C5" transform="translate(366,273)"/>
<path d="M0 0 C7.53075177 1.83039105 14.00261406 5.1692615 18.20703125 11.9453125 C19.96855 16.50964187 19.49240325 21.49201504 18 26.0625 C17.67 26.701875 17.34 27.34125 17 28 C16.34 27.34 15.68 26.68 15 26 C12.2718044 25.71768617 12.2718044 25.71768617 9.1875 25.8125 C8.14980469 25.81894531 7.11210937 25.82539063 6.04296875 25.83203125 C3.25893347 25.98570714 0.71201363 26.37337948 -2 27 C-1.67 25.989375 -1.34 24.97875 -1 23.9375 C0.07080796 20.23085708 0.07148785 16.86034384 0 13 C0.20625 12.113125 0.4125 11.22625 0.625 10.3125 C1.08636976 7.46738646 0.29000663 6.49938784 -1 4 C-0.5625 1.87890625 -0.5625 1.87890625 0 0 Z " fill="#F1F2F4" transform="translate(273,284)"/>
<path d="M0 0 C3.88791449 0.4574017 5.41315497 1.67992197 8.1875 4.375 C10.02892662 8.05785324 9.55706872 12.34670091 9.1875 16.375 C7.6875 20 7.6875 20 6.1875 22.375 C5.5275 22.375 4.8675 22.375 4.1875 22.375 C3.93613281 22.96152344 3.68476563 23.54804688 3.42578125 24.15234375 C0.44743568 29.49833312 -5.49596337 33.55058991 -10.8125 36.375 C-10.30537967 32.65611761 -9.69641785 29.64045761 -7.8125 26.375 C-7.1525 26.375 -6.4925 26.375 -5.8125 26.375 C-3.65490289 19.09310974 -3.09607486 12.38698079 -4.4375 4.875 C-4.56125 4.05 -4.685 3.225 -4.8125 2.375 C-2.8125 0.375 -2.8125 0.375 0 0 Z " fill="#FCF0DB" transform="translate(264.8125,199.625)"/>
<path d="M0 0 C10.71434306 0.04804638 21.34206804 1.78873979 31.9375 3.25 C31.9375 3.91 31.9375 4.57 31.9375 5.25 C34.5775 5.58 37.2175 5.91 39.9375 6.25 C39.9375 6.58 39.9375 6.91 39.9375 7.25 C38.50024129 7.41873478 37.06268162 7.58490737 35.625 7.75 C34.82449219 7.8428125 34.02398437 7.935625 33.19921875 8.03125 C30.9375 8.25 30.9375 8.25 27.9375 8.25 C26.9475 8.58 25.9575 8.91 24.9375 9.25 C24.9375 8.59 24.9375 7.93 24.9375 7.25 C22.9575 7.25 20.9775 7.25 18.9375 7.25 C18.2775 9.23 17.6175 11.21 16.9375 13.25 C16.23625 12.775625 15.535 12.30125 14.8125 11.8125 C11.77668663 10.16260143 9.34581214 9.64631536 5.9375 9.25 C5.9375 8.59 5.9375 7.93 5.9375 7.25 C3.9575 7.25 1.9775 7.25 -0.0625 7.25 C-0.3925 7.91 -0.7225 8.57 -1.0625 9.25 C-2.3825 7.93 -3.7025 6.61 -5.0625 5.25 C-5.3925 5.91 -5.7225 6.57 -6.0625 7.25 C-6.7225 7.25 -7.3825 7.25 -8.0625 7.25 C-5.77782415 0.091349 -5.77782415 0.091349 0 0 Z " fill="#E3A474" transform="translate(256.0625,190.75)"/>
<path d="M0 0 C0.33 0 0.66 0 1 0 C1.625 3.375 1.625 3.375 2 7 C1.34 7.66 0.68 8.32 0 9 C0.66 9.66 1.32 10.32 2 11 C1.01 13.31 0.02 15.62 -1 18 C-2.32 18 -3.64 18 -5 18 C-5.66 20.64 -6.32 23.28 -7 26 C-9.66666667 26 -12.33333333 26 -15 26 C-15.144375 26.804375 -15.28875 27.60875 -15.4375 28.4375 C-16 31 -16 31 -17 32 C-16.67 32.66 -16.34 33.32 -16 34 C-17.43739513 34.02712066 -18.87493863 34.04645067 -20.3125 34.0625 C-21.11300781 34.07410156 -21.91351563 34.08570313 -22.73828125 34.09765625 C-25 34 -25 34 -28 33 C-28.99 33.66 -29.98 34.32 -31 35 C-30.67 35.66 -30.34 36.32 -30 37 C-31.32 37 -32.64 37 -34 37 C-34 38.65 -34 40.3 -34 42 C-34.83337891 41.75443359 -34.83337891 41.75443359 -35.68359375 41.50390625 C-38.21725309 40.95273921 -40.47226924 40.9023385 -43.0625 40.9375 C-43.91972656 40.94652344 -44.77695312 40.95554687 -45.66015625 40.96484375 C-46.43230469 40.97644531 -47.20445312 40.98804688 -48 41 C-48.99 41 -49.98 41 -51 41 C-50 39 -50 39 -46.7109375 37.7734375 C-45.26639535 37.30490987 -43.82102134 36.83894229 -42.375 36.375 C-30.52342191 32.36180699 -19.64228111 27.3885451 -10.63671875 18.46875 C-9 17 -9 17 -7 17 C-5.57824908 14.19475155 -4.22890116 11.36759801 -2.9375 8.5 C-2.59589844 7.7471875 -2.25429688 6.994375 -1.90234375 6.21875 C-1.06305349 4.15504062 -0.47886542 2.17217303 0 0 Z " fill="#7C7A80" transform="translate(374,326)"/>
<path d="M0 0 C3.24917519 0.70252437 6.05927898 0.0422035 9.3125 -0.5 C9.9725 -0.5 10.6325 -0.5 11.3125 -0.5 C11.3125 0.82 11.3125 2.14 11.3125 3.5 C10.78930176 3.71092285 10.26610352 3.9218457 9.72705078 4.13916016 C-3.26802561 9.39378536 -3.26802561 9.39378536 -15.46484375 16.24609375 C-19.2920445 18.40519997 -23.43834715 19.46935442 -27.6875 20.5 C-28.3475 18.85 -29.0075 17.2 -29.6875 15.5 C-26.3875 15.17 -23.0875 14.84 -19.6875 14.5 C-19.6875 12.52 -19.6875 10.54 -19.6875 8.5 C-15.39086653 7.48902742 -10.77011196 6.45869402 -6.6875 8.5 C-5.08335785 7.31476003 -5.08335785 7.31476003 -3.6875 5.5 C-3.43680087 2.87429296 -3.43680087 2.87429296 -3.6875 0.5 C-1.6875 -0.5 -1.6875 -0.5 0 0 Z " fill="#D3D3D8" transform="translate(187.6875,176.5)"/>
<path d="M0 0 C2 2 2 2 2 5 C-2.455 5.495 -2.455 5.495 -7 6 C-3.7 6.33 -0.4 6.66 3 7 C2.6875 10.375 2.6875 10.375 2 14 C-1.68115537 16.45410358 -3.65293598 16.23287843 -8 16 C-8.99 15.67 -9.98 15.34 -11 15 C-12.73750455 11.52499089 -12.58588811 7.79143683 -12 4 C-8.54217705 -0.29608306 -5.33485606 -0.60394597 0 0 Z " fill="#1A1D27" transform="translate(287,293)"/>
<path d="M0 0 C3 1.5625 3 1.5625 5 4 C6.09194645 7.82181259 6.5996213 9.88641759 4.6875 13.4375 C3 15 3 15 1 15 C1 14.01 1 13.02 1 12 C-4.94 11.01 -4.94 11.01 -11 10 C-10 6 -10 6 -9 4 C-10.65 4 -12.3 4 -14 4 C-9.74311636 -0.45037835 -6.01250868 -0.72690088 0 0 Z " fill="#1F2630" transform="translate(248,293)"/>
<path d="M0 0 C5.21925134 -0.42780749 5.21925134 -0.42780749 8 0 C10.74928168 2.83519673 10.97433694 4.70230848 11.3125 8.625 C11 12 11 12 9 15 C8.01 15.33 7.02 15.66 6 16 C4.77030122 19.51190809 4.77030122 19.51190809 4 23 C2.35 23.33 0.7 23.66 -1 24 C-0.67 22.741875 -0.34 21.48375 0 20.1875 C1.4742996 13.57929186 1.91073968 6.55765859 0 0 Z " fill="#FBFDFB" transform="translate(262,203)"/>
<path d="M0 0 C0.33 1.65 0.66 3.3 1 5 C-0.32 5.33 -1.64 5.66 -3 6 C-3 6.66 -3 7.32 -3 8 C-2.34 8 -1.68 8 -1 8 C-1 8.66 -1 9.32 -1 10 C-6.94 10 -12.88 10 -19 10 C-19 8.35 -19 6.7 -19 5 C-18.01 4.34 -17.02 3.68 -16 3 C-16.33 2.34 -16.66 1.68 -17 1 C-11.30494264 0.3583034 -5.73266804 -0.12462322 0 0 Z " fill="#020617" transform="translate(263,329)"/>
<path d="M0 0 C1.96665176 1.76998659 3.2690221 3.4284426 4.6875 5.6875 C10.35825743 14.26797192 18.04896661 19.22611553 27 24 C26.34 24.66 25.68 25.32 25 26 C23.65938457 25.69728039 22.32594105 25.36162029 21 25 C20.01 25.33 19.02 25.66 18 26 C17.67 25.67 17.34 25.34 17 25 C16.01 25.66 15.02 26.32 14 27 C13.67 24.36 13.34 21.72 13 19 C11.02 19 9.04 19 7 19 C6.33333333 16.33333333 5.66666667 13.66666667 5 11 C2.69 11 0.38 11 -2 11 C-1.649375 10.071875 -1.29875 9.14375 -0.9375 8.1875 C0.32382628 5.0197047 0.32382628 5.0197047 -1 2 C-0.67 1.34 -0.34 0.68 0 0 Z " fill="#7D7C82" transform="translate(138,333)"/>
<path d="M0 0 C0.99 0.33 1.98 0.66 3 1 C2.34 2.98 1.68 4.96 1 7 C5.29 7.33 9.58 7.66 14 8 C13.67 9.32 13.34 10.64 13 12 C9.04 12 5.08 12 1 12 C1 12.66 1 13.32 1 14 C0.01 13.67 -0.98 13.34 -2 13 C-2.33 11.68 -2.66 10.36 -3 9 C-6.96 8.67 -10.92 8.34 -15 8 C-15.66 6.35 -16.32 4.7 -17 3 C-16.34 3 -15.68 3 -15 3 C-14.67 3.99 -14.34 4.98 -14 6 C-10.7 6.33 -7.4 6.66 -4 7 C-3.896875 6.21625 -3.79375 5.4325 -3.6875 4.625 C-3 2 -3 2 0 0 Z " fill="#0B0D18" transform="translate(236,296)"/>
<path d="M0 0 C3.68862535 0.49846289 5.68546144 1.0241647 8 4 C11.18375566 9.14117581 10.73335852 15.17757781 10 21 C7.75 24.0625 7.75 24.0625 5 26 C4.4225 26.721875 3.845 27.44375 3.25 28.1875 C-0.10692889 30.89169271 -3.81331482 31.32011095 -8 32 C-8 32.66 -8 33.32 -8 34 C-11.47325181 35.1577506 -14.36067448 35.06866652 -18 35 C-15.51692324 33.75846162 -13.03114339 32.52431984 -10.5390625 31.30078125 C-0.2262554 26.45076208 -0.2262554 26.45076208 7 18 C8.15013084 14.07602419 8.45605594 12.08946697 6.875 8.3125 C4.82799959 5.78786616 2.55013509 3.99875453 0 2 C0 1.34 0 0.68 0 0 Z " fill="#FCF1DC" transform="translate(318,206)"/>
<path d="M0 0 C-0.37125 1.0725 -0.7425 2.145 -1.125 3.25 C-2.31491732 6.81629347 -2.31491732 6.81629347 -1.125 9.4375 C-0.568125 10.2109375 -0.568125 10.2109375 0 11 C0.33 9.35 0.66 7.7 1 6 C1.33 6 1.66 6 2 6 C2.08636719 6.71285156 2.17273438 7.42570313 2.26171875 8.16015625 C3.2373534 14.81058329 4.65662015 18.85652386 9 24 C5.8525787 24 4.71198463 23.399734 2 22 C1.34 22 0.68 22 0 22 C0.04125 20.88625 0.0825 19.7725 0.125 18.625 C0.41121859 14.95633975 0.41121859 14.95633975 -2 13 C-3.32 14.32 -4.64 15.64 -6 17 C-6.68707555 14.50935112 -7 12.62113708 -7 10 C-7.20625 9.360625 -7.4125 8.72125 -7.625 8.0625 C-8 6 -8 6 -7.3125 3.875 C-5.39770436 1.13957765 -3.34703671 0 0 0 Z " fill="#161B31" transform="translate(162,208)"/>
<path d="M0 0 C0.94875 0.04125 1.8975 0.0825 2.875 0.125 C0.22710984 1.8902601 -1.92999819 2.89333783 -4.875 4 C-12.65944484 7.06625662 -19.64670222 10.8350994 -25 17.4375 C-26.52075222 21.07040807 -26.93426751 24.29543051 -26.125 28.125 C-24.68722595 30.77090363 -23.06933137 32.79180236 -21.125 35.125 C-24.51568068 33.67185114 -26.88540926 32.0844592 -29.125 29.125 C-29.62844411 24.51009563 -29.09910957 21.28102015 -27.125 17.125 C-26.57953365 15.85579293 -26.03802087 14.58488111 -25.5 13.3125 C-25.04625 12.260625 -24.5925 11.20875 -24.125 10.125 C-22.805 10.125 -21.485 10.125 -20.125 10.125 C-20.125 9.465 -20.125 8.805 -20.125 8.125 C-18.475 7.795 -16.825 7.465 -15.125 7.125 C-15.125 6.135 -15.125 5.145 -15.125 4.125 C-14.07699219 3.94324219 -14.07699219 3.94324219 -13.0078125 3.7578125 C-11.64269531 3.50644531 -11.64269531 3.50644531 -10.25 3.25 C-8.89261719 3.00636719 -8.89261719 3.00636719 -7.5078125 2.7578125 C-4.07166117 1.84526084 -3.77402584 0.15096103 0 0 Z " fill="#FBE7CA" transform="translate(210.125,195.875)"/>
<path d="M0 0 C11.18406737 -0.32469873 21.81844844 0.00904335 32 5 C33.24966545 5.4800385 34.49966727 5.95920224 35.75 6.4375 C38.95360038 7.97769249 40.2329823 8.9856757 42 12 C40.783125 11.5875 39.56625 11.175 38.3125 10.75 C27.25271476 7.04453638 27.25271476 7.04453638 16 4 C16 3.34 16 2.68 16 2 C10.72 1.67 5.44 1.34 0 1 C0 0.67 0 0.34 0 0 Z " fill="#FCE9CD" transform="translate(272,192)"/>
<path d="M0 0 C2 2 2 2 2 5 C-2.455 5.495 -2.455 5.495 -7 6 C-3.7 6.33 -0.4 6.66 3 7 C3 7.66 3 8.32 3 9 C-1.95 8.67 -6.9 8.34 -12 8 C-11 3 -11 3 -9.375 1.1875 C-6.1090958 -0.4454521 -3.59930998 -0.33326944 0 0 Z " fill="#0C0F16" transform="translate(287,293)"/>
<path d="M0 0 C3.62493334 -0.05787784 7.24974857 -0.0935542 10.875 -0.125 C11.90753906 -0.14175781 12.94007813 -0.15851563 14.00390625 -0.17578125 C14.99003906 -0.18222656 15.97617188 -0.18867188 16.9921875 -0.1953125 C18.35899658 -0.21102295 18.35899658 -0.21102295 19.75341797 -0.22705078 C22 0 22 0 24 2 C24 2.99 24 3.98 24 5 C19.38 5.33 14.76 5.66 10 6 C10 5.34 10 4.68 10 4 C9.34 3.67 8.68 3.34 8 3 C8.33 2.67 8.66 2.34 9 2 C6.03 1.67 3.06 1.34 0 1 C0 0.67 0 0.34 0 0 Z " fill="#131427" transform="translate(228,174)"/>
<path d="M0 0 C0.598125 0.639375 1.19625 1.27875 1.8125 1.9375 C3.90810337 4.20310389 3.90810337 4.20310389 7 5 C9.14255793 4.61067144 9.14255793 4.61067144 11 4 C11 4.66 11 5.32 11 6 C14.3 6 17.6 6 21 6 C21 5.34 21 4.68 21 4 C23.64 4 26.28 4 29 4 C29.33 3.34 29.66 2.68 30 2 C30.66 2.66 31.32 3.32 32 4 C26.57095269 7.61936487 21.60436773 8.30972605 15.1875 8.1875 C14.48625 8.18105469 13.785 8.17460937 13.0625 8.16796875 C7.97860661 8.09279103 3.02946044 7.71849435 -2 7 C-1.42415568 4.61435923 -0.77772405 2.33317216 0 0 Z " fill="#D9DAE2" transform="translate(261,166)"/>
<path d="M0 0 C0.36351562 0.96099609 0.36351562 0.96099609 0.734375 1.94140625 C2.33735048 6.07831605 3.90898714 10.03343639 6.25 13.8125 C7.98289728 16.96884861 8.42596811 18.48576306 8 22 C7.7525 21.443125 7.505 20.88625 7.25 20.3125 C6.00800235 17.84535202 6.00800235 17.84535202 3.875 15.375 C2 13 2 13 2 11 C1.443125 10.79375 0.88625 10.5875 0.3125 10.375 C-2.97012371 8.42316968 -4.70673246 6.05769006 -7 3 C-7 2.34 -7 1.68 -7 1 C-4 0 -4 0 0 0 Z " fill="#FDF7E8" transform="translate(245,218)"/>
<path d="M0 0 C0.33 0 0.66 0 1 0 C1.625 3.375 1.625 3.375 2 7 C1.34 7.66 0.68 8.32 0 9 C0.66 9.66 1.32 10.32 2 11 C1.01 13.31 0.02 15.62 -1 18 C-2.32 18 -3.64 18 -5 18 C-5.33 18.99 -5.66 19.98 -6 21 C-7.65 20.67 -9.3 20.34 -11 20 C-10.01 18.515 -10.01 18.515 -9 17 C-8.34 17 -7.68 17 -7 17 C-5.57824908 14.19475155 -4.22890116 11.36759801 -2.9375 8.5 C-2.59589844 7.7471875 -2.25429688 6.994375 -1.90234375 6.21875 C-1.06305349 4.15504062 -0.47886542 2.17217303 0 0 Z " fill="#98979E" transform="translate(374,326)"/>
<path d="M0 0 C3.63 0 7.26 0 11 0 C11 0.33 11 0.66 11 1 C7.7 1 4.4 1 1 1 C1 1.66 1 2.32 1 3 C5.13418591 4.94456928 8.769997 5.37028021 13.3125 5.625 C14.56675781 5.69976562 15.82101563 5.77453125 17.11328125 5.8515625 C18.06589844 5.90054687 19.01851563 5.94953125 20 6 C20 6.33 20 6.66 20 7 C15.545 7.495 15.545 7.495 11 8 C11 8.66 11 9.32 11 10 C13.97 10 16.94 10 20 10 C20 10.33 20 10.66 20 11 C12.37200717 11.73033974 6.28983715 10.59641945 0 6 C-1.28125 3.828125 -1.28125 3.828125 -2 2 C-1.34 2 -0.68 2 0 2 C0 1.34 0 0.68 0 0 Z " fill="#414148" transform="translate(237,308)"/>
<path d="M0 0 C2.68274059 0.28151991 5.33178686 0.6168156 8 1 C9.23878906 1.15863525 10.47757813 1.31727051 11.75390625 1.48071289 C13.63916016 1.72422485 13.63916016 1.72422485 15.5625 1.97265625 C16.23925781 2.06002548 16.91601562 2.14739471 17.61328125 2.2374115 C19.74220704 2.51228995 21.87110402 2.7873908 24 3.0625 C25.45702934 3.25066586 26.91406057 3.43881703 28.37109375 3.62695312 C31.91408441 4.08446593 35.45704929 4.54217797 39 5 C39 5.33 39 5.66 39 6 C18.27659574 6.57446809 18.27659574 6.57446809 10 3 C10 3.66 10 4.32 10 5 C8.02 5 6.04 5 4 5 C3.67 4.01 3.34 3.02 3 2 C0.98491642 1.26676204 0.98491642 1.26676204 -1 1 C-0.67 0.67 -0.34 0.34 0 0 Z " fill="#706F74" transform="translate(200,370)"/>
<path d="M0 0 C0.33 1.32 0.66 2.64 1 4 C-0.32 4 -1.64 4 -3 4 C-3 5.65 -3 7.3 -3 9 C-3.55558594 8.83628906 -4.11117188 8.67257812 -4.68359375 8.50390625 C-7.21725309 7.95273921 -9.47226924 7.9023385 -12.0625 7.9375 C-13.34833984 7.95103516 -13.34833984 7.95103516 -14.66015625 7.96484375 C-15.81837891 7.98224609 -15.81837891 7.98224609 -17 8 C-17.99 8 -18.98 8 -20 8 C-18.7233984 5.44679681 -17.90007922 5.41037912 -15.25390625 4.4921875 C-14.49916016 4.22792969 -13.74441406 3.96367187 -12.96679688 3.69140625 C-12.17337891 3.42199219 -11.37996094 3.15257812 -10.5625 2.875 C-9.77294922 2.59785156 -8.98339844 2.32070313 -8.16992188 2.03515625 C-2.29002463 0 -2.29002463 0 0 0 Z " fill="#76757B" transform="translate(343,359)"/>
<path d="M0 0 C1.65 0 3.3 0 5 0 C5.33 0.66 5.66 1.32 6 2 C5.54625 2.391875 5.0925 2.78375 4.625 3.1875 C2.72357081 5.30832487 1.93795972 7.33042235 1 10 C-2.3 10 -5.6 10 -9 10 C-9 8.35 -9 6.7 -9 5 C-5.7 5 -2.4 5 1 5 C0.67 3.35 0.34 1.7 0 0 Z " fill="#E8E8EC" transform="translate(231,293)"/>
<path d="M0 0 C3 2 3 2 3.9375 5.75 C4.21440963 9.01399862 3.983001 10.03541458 2.5 13.125 C-0.37891051 16.43574708 -3.3854976 19.48943429 -7 22 C-7.66 22 -8.32 22 -9 22 C-7.7015201 17.99635363 -6.38854245 16.40477206 -3 14 C-2.67 13.01 -2.34 12.02 -2 11 C-1.34 10.67 -0.68 10.34 0 10 C0.77811718 6.18015204 1.24386556 3.73159669 0 0 Z " fill="#E0AD7E" transform="translate(323,212)"/>
<path d="M0 0 C10.23 0 20.46 0 31 0 C30.67 0.66 30.34 1.32 30 2 C24.18790623 3.63403983 18.08076537 2.88155886 12.125 2.5625 C10.52011719 2.48418945 10.52011719 2.48418945 8.8828125 2.40429688 C6.25486761 2.27524601 3.62736387 2.14030848 1 2 C0.67 1.34 0.34 0.68 0 0 Z " fill="#7E7D81" transform="translate(240,375)"/>
<path d="M0 0 C0.97582031 0.10183594 1.95164063 0.20367187 2.95703125 0.30859375 C3.69308594 0.39238281 4.42914063 0.47617187 5.1875 0.5625 C3.15817421 2.1238471 1.3087167 3.50362332 -1 4.625 C-2.99142157 5.42952161 -2.99142157 5.42952161 -3.8125 7.5625 C-3.1525 7.8925 -2.4925 8.2225 -1.8125 8.5625 C-5.09946233 9.36203138 -6.52273192 9.65908936 -9.8125 8.5625 C-9.8125 7.9025 -9.8125 7.2425 -9.8125 6.5625 C-8.8225 5.9025 -7.8325 5.2425 -6.8125 4.5625 C-7.8025 3.9025 -8.7925 3.2425 -9.8125 2.5625 C-10.1425 1.9025 -10.4725 1.2425 -10.8125 0.5625 C-7.01982808 -0.3735342 -3.87575435 -0.42026252 0 0 Z " fill="#121326" transform="translate(214.8125,269.4375)"/>
<path d="M0 0 C0.78503906 0.00386719 1.57007813 0.00773437 2.37890625 0.01171875 C4.4375 0.3125 4.4375 0.3125 6.4375 2.3125 C6.4375 3.3025 6.4375 4.2925 6.4375 5.3125 C1.8175 5.3125 -2.8025 5.3125 -7.5625 5.3125 C-7.8925 6.3025 -8.2225 7.2925 -8.5625 8.3125 C-7.78416813 2.55284415 -6.05329012 -0.12964213 0 0 Z " fill="#151620" transform="translate(225.5625,292.6875)"/>
<path d="M0 0 C-0.36923077 7.38461538 -0.36923077 7.38461538 -3.5625 10.5 C-4.366875 10.995 -5.17125 11.49 -6 12 C-6.33 11.34 -6.66 10.68 -7 10 C-7.94875 10.20625 -8.8975 10.4125 -9.875 10.625 C-10.90625 10.74875 -11.9375 10.8725 -13 11 C-13.66 10.34 -14.32 9.68 -15 9 C-14.40832031 8.68546875 -13.81664062 8.3709375 -13.20703125 8.046875 C-9.93622171 6.27540882 -3.17470251 0 0 0 Z " fill="#E7E8EC" transform="translate(344,242)"/>
<path d="M0 0 C0.99 0.33 1.98 0.66 3 1 C3.99 0.67 4.98 0.34 6 0 C5.95875 0.763125 5.9175 1.52625 5.875 2.3125 C5.77919176 5.22718416 5.77919176 5.22718416 8 8 C1.33333333 6 -5.33333333 4 -12 2 C-12 1.67 -12 1.34 -12 1 C-11.21753906 1.01160156 -10.43507813 1.02320313 -9.62890625 1.03515625 C-8.61699219 1.04417969 -7.60507812 1.05320313 -6.5625 1.0625 C-5.04849609 1.07990234 -5.04849609 1.07990234 -3.50390625 1.09765625 C-1.05978933 1.28612676 -1.05978933 1.28612676 0 0 Z " fill="#D0D0D9" transform="translate(314,176)"/>
<path d="M0 0 C2.2477975 2.05233685 3.0022242 3.00667261 4 6 C7.00007271 7.70855022 7.00007271 7.70855022 10 9 C10 8.34 10 7.68 10 7 C10.99 7.33 11.98 7.66 13 8 C12.34 9.98 11.68 11.96 11 14 C9.68 14 8.36 14 7 14 C6.77570313 13.36578125 6.55140625 12.7315625 6.3203125 12.078125 C5.16214243 9.77983843 5.16214243 9.77983843 2.6171875 9.171875 C1.71226562 9.03265625 0.80734375 8.8934375 -0.125 8.75 C-1.03507813 8.60046875 -1.94515625 8.4509375 -2.8828125 8.296875 C-3.58148438 8.19890625 -4.28015625 8.1009375 -5 8 C-4.01 7.67 -3.02 7.34 -2 7 C-2 6.34 -2 5.68 -2 5 C-1.01 5 -0.02 5 1 5 C0.67 3.35 0.34 1.7 0 0 Z " fill="#D9DCE0" transform="translate(245,165)"/>
<path d="M0 0 C0.66 1.32 1.32 2.64 2 4 C1.505 4.515625 1.01 5.03125 0.5 5.5625 C-1.49649241 8.80680017 -1.21564385 11.26217334 -1 15 C-2.65 15.66 -4.3 16.32 -6 17 C-6.50224661 10.72191742 -6.19082691 7.05364422 -2 2 C-1.34 1.34 -0.68 0.68 0 0 Z " fill="#EAEEF3" transform="translate(219,289)"/>
<path d="M0 0 C0.99 0.33 1.98 0.66 3 1 C3 5.29 3 9.58 3 14 C1.35 14.33 -0.3 14.66 -2 15 C-2.3690205 4.44191344 -2.3690205 4.44191344 0 0 Z " fill="#F9FEFC" transform="translate(240,200)"/>
<path d="M0 0 C5.03681497 3.07122864 8.94510767 6.72916666 13 11 C12.34 11.66 11.68 12.32 11 13 C10.67 12.01 10.34 11.02 10 10 C9.34 10 8.68 10 8 10 C8.34786708 11.97536745 8.34786708 11.97536745 9 14 C9.66 14.33 10.32 14.66 11 15 C9.35 15.33 7.7 15.66 6 16 C5.67 14.35 5.34 12.7 5 11 C5.66 10.67 6.32 10.34 7 10 C6.01 10 5.02 10 4 10 C4.33 9.01 4.66 8.02 5 7 C3.77119784 5.7058258 3.77119784 5.7058258 1 4 C0.3125 1.875 0.3125 1.875 0 0 Z " fill="#111628" transform="translate(336,192)"/>
<path d="M0 0 C2.27997563 2.27997563 2.45210457 3.26052284 3.0703125 6.3515625 C3.24433594 7.20234375 3.41835937 8.053125 3.59765625 8.9296875 C3.77167969 9.81914062 3.94570312 10.70859375 4.125 11.625 C4.30675781 12.5221875 4.48851562 13.419375 4.67578125 14.34375 C5.1239946 16.5612266 5.5650924 18.77988214 6 21 C5.34 21 4.68 21 4 21 C3.67 21.66 3.34 22.32 3 23 C2.814375 22.13375 2.814375 22.13375 2.625 21.25 C2.11868271 19.01707588 2.11868271 19.01707588 0.96875 17.34375 C-0.40837925 14.01198568 -0.21199776 10.79013961 -0.125 7.25 C-0.11597656 6.55261719 -0.10695312 5.85523438 -0.09765625 5.13671875 C-0.07419888 3.42433042 -0.03833104 1.71211996 0 0 Z " fill="#13182B" transform="translate(167,264)"/>
<path d="M0 0 C-0.33 0.66 -0.66 1.32 -1 2 C-2.27875 1.979375 -3.5575 1.95875 -4.875 1.9375 C-9.96207017 1.92941245 -14.9516147 2.40979211 -20 3 C-20 3.99 -20 4.98 -20 6 C-21.99954746 6.04254356 -24.00041636 6.04080783 -26 6 C-26.33 5.67 -26.66 5.34 -27 5 C-29.33944736 5.28730055 -31.6739143 5.61936779 -34 6 C-27.43626747 1.62417831 -19.26161357 0.75327895 -11.5625 -0.25 C-10.87647705 -0.34216797 -10.1904541 -0.43433594 -9.48364258 -0.52929688 C-6.09354344 -0.933985 -3.24778914 -1.16289125 0 0 Z " fill="#E3B586" transform="translate(244,192)"/>
<path d="M0 0 C0 1.65 0 3.3 0 5 C2.31 5 4.62 5 7 5 C7 6.65 7 8.3 7 10 C3.7 10 0.4 10 -3 10 C-3 7.03 -3 4.06 -3 1 C-1 0 -1 0 0 0 Z " fill="#050715" transform="translate(259,298)"/>
<path d="M0 0 C5.46737191 1.74807129 10.75824848 3.65794081 16 6 C15.01 6.495 15.01 6.495 14 7 C14 7.66 14 8.32 14 9 C5.42857143 8 5.42857143 8 2 7 C2.33 5.35 2.66 3.7 3 2 C2.01 1.67 1.02 1.34 0 1 C0 0.67 0 0.34 0 0 Z " fill="#77767B" transform="translate(167,359)"/>
<path d="M0 0 C2.0625 0.1875 2.0625 0.1875 4 1 C4.495 2.485 4.495 2.485 5 4 C3.7625 4.05607422 3.7625 4.05607422 2.5 4.11328125 C-5.09969178 4.54585299 -12.32113994 5.46646925 -19.75585938 7.0715332 C-23.0207061 7.75198304 -24.77058753 8.07647082 -28 7 C-24.54941314 4.69960876 -22.05904498 4.5261725 -18 4 C-17.67 3.67 -17.34 3.34 -17 3 C-13.81910775 2.76340471 -10.64590563 2.60374385 -7.45898438 2.48242188 C-3.27511917 2.39125865 -3.27511917 2.39125865 0 0 Z " fill="#FCF2D8" transform="translate(241,188)"/>
<path d="M0 0 C0.66 0.33 1.32 0.66 2 1 C1.67 1.33 1.34 1.66 1 2 C2.65 1.67 4.3 1.34 6 1 C6.33 1.66 6.66 2.32 7 3 C2.53665816 4.72293135 -1.10201231 5.22240791 -5.875 5.125 C-7.60363281 5.09792969 -7.60363281 5.09792969 -9.3671875 5.0703125 C-10.23601562 5.04710937 -11.10484375 5.02390625 -12 5 C-12 4.34 -12 3.68 -12 3 C-12.66 2.67 -13.32 2.34 -14 2 C-13.24074219 1.93941406 -12.48148438 1.87882812 -11.69921875 1.81640625 C-10.70535156 1.73261719 -9.71148437 1.64882813 -8.6875 1.5625 C-7.70136719 1.48128906 -6.71523437 1.40007812 -5.69921875 1.31640625 C-2.90624401 1.08187441 -2.90624401 1.08187441 0 0 Z " fill="#17161D" transform="translate(260,313)"/>
<path d="M0 0 C1.6875 2.1875 1.6875 2.1875 1.6875 4.1875 C-1.0625 5.8125 -1.0625 5.8125 -4.3125 7.1875 C-6.6875 6.375 -6.6875 6.375 -8.3125 5.1875 C-7.9825 3.2075 -7.6525 1.2275 -7.3125 -0.8125 C-3.91460918 -1.94513027 -2.90750063 -2.27885184 0 0 Z " fill="#03061C" transform="translate(337.3125,259.8125)"/>
<path d="M0 0 C2.64 0.99 5.28 1.98 8 3 C7.01 3.33 6.02 3.66 5 4 C4.34 3.67 3.68 3.34 3 3 C3.66 4.65 4.32 6.3 5 8 C3 9 3 9 0.3984375 8.22265625 C-1.09816406 7.64837891 -1.09816406 7.64837891 -2.625 7.0625 C-3.62789063 6.68222656 -4.63078125 6.30195313 -5.6640625 5.91015625 C-6.43492187 5.60980469 -7.20578125 5.30945313 -8 5 C-8 4.34 -8 3.68 -8 3 C-5.03 3.495 -5.03 3.495 -2 4 C-1.34 2.68 -0.68 1.36 0 0 Z " fill="#16182B" transform="translate(316,182)"/>
<path d="M0 0 C-0.99 1.485 -0.99 1.485 -2 3 C-5.125 3.1875 -5.125 3.1875 -8 3 C-8 3.99 -8 4.98 -8 6 C-8.99 5.67 -9.98 5.34 -11 5 C-13.16715557 5.87483915 -13.16715557 5.87483915 -15 7 C-15 5.68 -15 4.36 -15 3 C-16.32 2.67 -17.64 2.34 -19 2 C-16.95928485 1.66089006 -14.91737379 1.32897296 -12.875 1 C-11.73804688 0.814375 -10.60109375 0.62875 -9.4296875 0.4375 C-6.23862398 0.03043951 -3.21182209 -0.07809902 0 0 Z " fill="#191A2F" transform="translate(305,268)"/>
<path d="M0 0 C2.91922205 2.62729984 4.87821836 5.71466069 7 9 C7.99 10.485 7.99 10.485 9 12 C8.34 12.66 7.68 13.32 7 14 C6.34 13.01 5.68 12.02 5 11 C1.41642759 10.74984127 1.41642759 10.74984127 -2 11 C-1.649375 10.071875 -1.29875 9.14375 -0.9375 8.1875 C0.32382628 5.0197047 0.32382628 5.0197047 -1 2 C-0.67 1.34 -0.34 0.68 0 0 Z " fill="#99979D" transform="translate(138,333)"/>
<path d="M0 0 C2.05078125 0.03255208 4.1015625 0.06510417 6.15234375 0.09765625 C6.48234375 1.74765625 6.81234375 3.39765625 7.15234375 5.09765625 C3.52234375 5.09765625 -0.10765625 5.09765625 -3.84765625 5.09765625 C-2.6076991 0.13782765 -2.6076991 0.13782765 0 0 Z " fill="#F4F7FA" transform="translate(240.84765625,297.90234375)"/>
<path d="M0 0 C3.60103881 0.97325373 4.78469405 1.65848022 6.8125 4.875 C8 8 8 8 8 12 C6 12 6 12 3.5 9.625 C2.675 8.75875 1.85 7.8925 1 7 C0.34 6.34 -0.32 5.68 -1 5 C-0.625 2.375 -0.625 2.375 0 0 Z " fill="#03091B" transform="translate(183,312)"/>
<path d="M0 0 C2.93386589 0.40446299 5.83374222 0.86706404 8.75 1.375 C16.50503702 2.67152811 24.1418919 3.59087049 32 4 C32 4.33 32 4.66 32 5 C23.42 5 14.84 5 6 5 C6 4.34 6 3.68 6 3 C5.01 3.33 4.02 3.66 3 4 C3 3.34 3 2.68 3 2 C1.68 1.67 0.36 1.34 -1 1 C-0.67 0.67 -0.34 0.34 0 0 Z " fill="#FDEEDB" transform="translate(208,241)"/>
<path d="M0 0 C3.24992446 -0.05819424 6.49971435 -0.09366116 9.75 -0.125 C10.67039062 -0.14175781 11.59078125 -0.15851563 12.5390625 -0.17578125 C13.42851562 -0.18222656 14.31796875 -0.18867188 15.234375 -0.1953125 C16.05131836 -0.20578613 16.86826172 -0.21625977 17.70996094 -0.22705078 C20.21887518 0.02170084 21.83395625 0.74299871 24 2 C22.56274129 2.16873478 21.12518162 2.33490737 19.6875 2.5 C18.88699219 2.5928125 18.08648437 2.685625 17.26171875 2.78125 C15 3 15 3 12 3 C11.01 3.33 10.02 3.66 9 4 C9 3.34 9 2.68 9 2 C7.329375 2.061875 7.329375 2.061875 5.625 2.125 C2 2 2 2 0 0 Z " fill="#E09961" transform="translate(272,196)"/>
<path d="M0 0 C4.29 0 8.58 0 13 0 C13 2.31 13 4.62 13 7 C8.1725201 5.58707905 4.2837641 3.57025846 0 1 C0 0.67 0 0.34 0 0 Z " fill="#D2D3DB" transform="translate(323,184)"/>
<path d="M0 0 C2.97 0 5.94 0 9 0 C8.67 1.32 8.34 2.64 8 4 C4.04 4 0.08 4 -4 4 C-4 4.66 -4 5.32 -4 6 C-4.99 5.67 -5.98 5.34 -7 5 C-6.67 3.68 -6.34 2.36 -6 1 C-5.67 1.66 -5.34 2.32 -5 3 C-3.35 2.34 -1.7 1.68 0 1 C0 0.67 0 0.34 0 0 Z " fill="#040814" transform="translate(241,304)"/>
<path d="M0 0 C1.5625 1.0625 1.5625 1.0625 3 3 C2.9375 6.5625 2.9375 6.5625 2 10 C-0.0625 11.4375 -0.0625 11.4375 -2 12 C-2 11.01 -2 10.02 -2 9 C-4.97 8.67 -7.94 8.34 -11 8 C-11 7.67 -11 7.34 -11 7 C-9.72125 6.87625 -8.4425 6.7525 -7.125 6.625 C-3.65209064 6.30957601 -3.65209064 6.30957601 -1 4 C-0.3574765 1.93125966 -0.3574765 1.93125966 0 0 Z " fill="#25293D" transform="translate(251,296)"/>
<path d="M0 0 C2.97 0 5.94 0 9 0 C9.33 1.65 9.66 3.3 10 5 C6.7 5 3.4 5 0 5 C0 3.35 0 1.7 0 0 Z " fill="#E0E2E7" transform="translate(259,298)"/>
<path d="M0 0 C0.66 0.99 1.32 1.98 2 3 C4.05925139 3.72382467 4.05925139 3.72382467 6 4 C6.625 5.875 6.625 5.875 7 8 C6.34 8.66 5.68 9.32 5 10 C4.34 9.34 3.68 8.68 3 8 C0.39719432 8.32041397 0.39719432 8.32041397 -2 9 C-3 6 -3 6 -1.5625 2.8125 C-1.046875 1.884375 -0.53125 0.95625 0 0 Z " fill="#14172B" transform="translate(332,294)"/>
<path d="M0 0 C0.33 0.66 0.66 1.32 1 2 C0.319375 3.85625 0.319375 3.85625 -0.375 5.75 C-2.61653287 12.00377435 -2.7283481 18.41478313 -3 25 C-5 23 -5 23 -5.265625 19.953125 C-5.26046875 18.73109375 -5.2553125 17.5090625 -5.25 16.25 C-5.25515625 15.03828125 -5.2603125 13.8265625 -5.265625 12.578125 C-5.00405678 9.05464721 -4.26854514 6.28210884 -3 3 C-2.34 3 -1.68 3 -1 3 C-0.67 2.01 -0.34 1.02 0 0 Z " fill="#FCEDD5" transform="translate(241,194)"/>
<path d="M0 0 C1.32 0.66 2.64 1.32 4 2 C4 3.32 4 4.64 4 6 C1.69 6.33 -0.62 6.66 -3 7 C-3 7.99 -3 8.98 -3 10 C-3.99 9.67 -4.98 9.34 -6 9 C-5.67 8.34 -5.34 7.68 -5 7 C-5.66 6.34 -6.32 5.68 -7 5 C-6.401875 4.9175 -5.80375 4.835 -5.1875 4.75 C-2.4033704 3.79544128 -1.56688858 2.42867729 0 0 Z " fill="#010518" transform="translate(315,265)"/>
<path d="M0 0 C1.258125 -0.020625 2.51625 -0.04125 3.8125 -0.0625 C4.52019531 -0.07410156 5.22789062 -0.08570313 5.95703125 -0.09765625 C8 0 8 0 11 1 C11 1.66 11 2.32 11 3 C13.64 3.66 16.28 4.32 19 5 C19 5.66 19 6.32 19 7 C19.99 7.33 20.98 7.66 22 8 C16.5632024 7.44147333 12.0816633 6.06042383 7.0625 3.9375 C6.37865234 3.65583984 5.69480469 3.37417969 4.99023438 3.08398438 C3.32386054 2.3964595 1.66149273 1.69923825 0 1 C0 0.67 0 0.34 0 0 Z " fill="#D8A986" transform="translate(195,235)"/>
<path d="M0 0 C3.96 0 7.92 0 12 0 C12 0.33 12 0.66 12 1 C9.69 1 7.38 1 5 1 C5 2.32 5 3.64 5 5 C4.34 5 3.68 5 3 5 C2.34 8.3 1.68 11.6 1 15 C0.67 15 0.34 15 0 15 C0 10.05 0 5.1 0 0 Z " fill="#303648" transform="translate(255,293)"/>
<path d="M0 0 C1.37478516 0.01740234 1.37478516 0.01740234 2.77734375 0.03515625 C3.69644531 0.04417969 4.61554688 0.05320313 5.5625 0.0625 C6.27277344 0.07410156 6.98304688 0.08570313 7.71484375 0.09765625 C6.39484375 0.42765625 5.07484375 0.75765625 3.71484375 1.09765625 C3.71484375 2.41765625 3.71484375 3.73765625 3.71484375 5.09765625 C1.07484375 5.42765625 -1.56515625 5.75765625 -4.28515625 6.09765625 C-3.21536826 0.1374089 -3.21536826 0.1374089 0 0 Z " fill="#232440" transform="translate(260.28515625,172.90234375)"/>
<path d="M0 0 C3.66881155 0.70554068 6.70450534 2.27735506 10 4 C9.01 5.485 9.01 5.485 8 7 C4.125 6.125 4.125 6.125 3 5 C2.67 6.65 2.34 8.3 2 10 C0.68 9.67 -0.64 9.34 -2 9 C-2 8.34 -2 7.68 -2 7 C-1.34 6.67 -0.68 6.34 0 6 C0 4.02 0 2.04 0 0 Z " fill="#0E1422" transform="translate(169,255)"/>
<path d="M0 0 C0.66 0.33 1.32 0.66 2 1 C-0.92607798 5.2765755 -3.07200123 6.57635591 -8 8 C-8.33 8.66 -8.66 9.32 -9 10 C-10.64363134 10.72159424 -12.31050386 11.39351421 -14 12 C-11.58149378 5.84380234 -5.62550412 2.86582286 0 0 Z " fill="#D9A570" transform="translate(200,201)"/>
<path d="M0 0 C0.66 0.33 1.32 0.66 2 1 C2 1.66 2 2.32 2 3 C1.21625 3.185625 0.4325 3.37125 -0.375 3.5625 C-3.39376342 4.83961627 -3.39376342 4.83961627 -4.3125 8.625 C-4.6528125 10.295625 -4.6528125 10.295625 -5 12 C-5.66 12 -6.32 12 -7 12 C-7.8125 9.8125 -7.8125 9.8125 -8 7 C-5.55487693 4.07943633 -3.16656091 2.11104061 0 0 Z " fill="#E29A68" transform="translate(262,230)"/>
<path d="M0 0 C-1.94293478 7.92119565 -1.94293478 7.92119565 -5 10 C-5.99 10 -6.98 10 -8 10 C-7.125 4.25 -7.125 4.25 -6 2 C-3.85118612 0.75230162 -2.50320403 0 0 0 Z " fill="#060B24" transform="translate(162,208)"/>
<path d="M0 0 C-0.33 0.556875 -0.66 1.11375 -1 1.6875 C-2.1309601 4.30284522 -2.15662974 6.1806646 -2 9 C-3.66666667 7.33333333 -5.33333333 5.66666667 -7 4 C-8.9931567 3.97624074 -8.9931567 3.97624074 -11.125 4.375 C-13.043125 4.684375 -13.043125 4.684375 -15 5 C-15 4.34 -15 3.68 -15 3 C-13.44033782 2.491217 -11.87710759 1.99336531 -10.3125 1.5 C-9.44238281 1.2215625 -8.57226562 0.943125 -7.67578125 0.65625 C-5.00608323 0.00149195 -2.73603316 -0.11831495 0 0 Z " fill="#75727A" transform="translate(322,367)"/>
<path d="M0 0 C5.96185398 -0.31378179 9.73558904 0.10973516 15 3 C16.9375 5.1875 16.9375 5.1875 18 7 C12 5 6 3 0 1 C0 0.67 0 0.34 0 0 Z " fill="#FBE6C8" transform="translate(296,197)"/>
<path d="M0 0 C3.875 4.75 3.875 4.75 5 7 C3.68 6.67 2.36 6.34 1 6 C0.34 7.65 -0.32 9.3 -1 11 C-3.52588702 8.63707344 -4.88820837 7.33537489 -6 4 C-4.02 4 -2.04 4 0 4 C0 2.68 0 1.36 0 0 Z " fill="#141A29" transform="translate(183,307)"/>
<path d="M0 0 C3.3 0 6.6 0 10 0 C9.67 1.32 9.34 2.64 9 4 C6.03 4 3.06 4 0 4 C0 2.68 0 1.36 0 0 Z " fill="#040819" transform="translate(260,294)"/>
<path d="M0 0 C3.36591866 1.44253657 5.51047079 3.33264727 8 6 C7.360625 6.28875 6.72125 6.5775 6.0625 6.875 C3.84793921 7.82823451 3.84793921 7.82823451 3 10 C-0.00617269 6.99382731 0.40414684 4.17618402 0 0 Z " fill="#E8ECF2" transform="translate(165,243)"/>
<path d="M0 0 C0.66 0 1.32 0 2 0 C2 0.66 2 1.32 2 2 C4.841051 2.66848259 7.25375602 2.99502439 10.1875 2.9375 C13 3 13 3 15 5 C8.93303301 5.77040851 3.11485027 6.09706112 -3 6 C-2.01 5.34 -1.02 4.68 0 4 C-0.33 3.01 -0.66 2.02 -1 1 C-0.67 0.67 -0.34 0.34 0 0 Z " fill="#D9D8E3" transform="translate(222,169)"/>
<path d="M0 0 C0.99 0.66 1.98 1.32 3 2 C0.36 1.67 -2.28 1.34 -5 1 C-5.66 2.98 -6.32 4.96 -7 7 C-8.65 6.67 -10.3 6.34 -12 6 C-11.1875 3.5625 -11.1875 3.5625 -10 1 C-6.47005387 -0.17664871 -3.70544587 -0.19850603 0 0 Z " fill="#040618" transform="translate(206,268)"/>
<path d="M0 0 C0.7734375 0.495 0.7734375 0.495 1.5625 1 C4.78026512 2.32010877 7.5570528 2.13242105 11 2 C11.66 3.32 12.32 4.64 13 6 C7.147205 5.48517081 1.6702363 4.54642808 -4 3 C-2.68 2.01 -1.36 1.02 0 0 Z " fill="#1D1E2D" transform="translate(204,257)"/>
<path d="M0 0 C1.44010481 0.25662245 2.8770687 0.53090821 4.3125 0.8125 C5.11300781 0.96332031 5.91351563 1.11414063 6.73828125 1.26953125 C9.23445587 2.07572236 10.32422106 3.02052002 12 5 C5.42391304 6.3451087 5.42391304 6.3451087 2 5 C1.34 4.34 0.68 3.68 0 3 C0 2.01 0 1.02 0 0 Z " fill="#06091C" transform="translate(319,185)"/>
<path d="M0 0 C0.66 0.99 1.32 1.98 2 3 C1.01 4.485 1.01 4.485 0 6 C1.32 6.33 2.64 6.66 4 7 C3.34 8.32 2.68 9.64 2 11 C1.401875 10.690625 0.80375 10.38125 0.1875 10.0625 C-2.08956772 8.89790296 -2.08956772 8.89790296 -5 8 C-3.62845496 5.04590299 -2.01136276 2.55991624 0 0 Z " fill="#141522" transform="translate(320,315)"/>
<path d="M0 0 C0.99 0.33 1.98 0.66 3 1 C2.67 1.33 2.34 1.66 2 2 C3.134375 2.28875 4.26875 2.5775 5.4375 2.875 C6.613125 3.24625 7.78875 3.6175 9 4 C9.33 4.66 9.66 5.32 10 6 C6.37 6 2.74 6 -1 6 C-1 1 -1 1 0 0 Z " fill="#03071B" transform="translate(172,259)"/>
<path d="M0 0 C0.33 0.66 0.66 1.32 1 2 C-0.32 3.65 -1.64 5.3 -3 7 C-5.97 6.505 -5.97 6.505 -9 6 C-9 5.34 -9 4.68 -9 4 C-6.03 2.68 -3.06 1.36 0 0 Z " fill="#B7B4BC" transform="translate(376,302)"/>
<path d="M0 0 C0.99 0.33 1.98 0.66 3 1 C3.1875 3.375 3.1875 3.375 3 6 C2.01 6.66 1.02 7.32 0 8 C-0.33 7.01 -0.66 6.02 -1 5 C-4.00847418 3.77479736 -4.00847418 3.77479736 -7 3 C-6.67 2.34 -6.34 1.68 -6 1 C-3.03 1.495 -3.03 1.495 0 2 C0 1.34 0 0.68 0 0 Z " fill="#101628" transform="translate(248,294)"/>
<path d="M0 0 C0.99 0 1.98 0 3 0 C3 0.66 3 1.32 3 2 C4.98 2.66 6.96 3.32 9 4 C8.34 5.98 7.68 7.96 7 10 C6.401875 9.236875 5.80375 8.47375 5.1875 7.6875 C3.15995888 5.08664741 3.15995888 5.08664741 1.25 3.3125 C0 2 0 2 0 0 Z " fill="#101322" transform="translate(285,288)"/>
<path d="M0 0 C-6.56342244 3.65875889 -12.54928441 5.93787671 -20 7 C-17.02567195 3.6931942 -14.28139025 3.16105498 -10 2 C-8.4221875 1.1646875 -8.4221875 1.1646875 -6.8125 0.3125 C-3.70714491 -1.13666571 -3.09899205 -0.98875764 0 0 Z " fill="#D5A882" transform="translate(314,235)"/>
<path d="M0 0 C1.2065625 0.0309375 1.2065625 0.0309375 2.4375 0.0625 C2.4375 0.7225 2.4375 1.3825 2.4375 2.0625 C5.4075 2.5575 5.4075 2.5575 8.4375 3.0625 C8.4375 3.3925 8.4375 3.7225 8.4375 4.0625 C2.1675 3.7325 -4.1025 3.4025 -10.5625 3.0625 C-10.5625 2.7325 -10.5625 2.4025 -10.5625 2.0625 C-9.428125 1.918125 -8.29375 1.77375 -7.125 1.625 C-3.80350664 1.10055368 -3.09809271 0.07556324 0 0 Z " fill="#C7C5D2" transform="translate(287.5625,171.9375)"/>
<path d="M0 0 C1.32 0.66 2.64 1.32 4 2 C4 3.32 4 4.64 4 6 C2.35 6.33 0.7 6.66 -1 7 C-1.625 5.1875 -1.625 5.1875 -2 3 C-1.34 2.01 -0.68 1.02 0 0 Z " fill="#898890" transform="translate(146,345)"/>
<path d="M0 0 C0.66 0.66 1.32 1.32 2 2 C1.34 2 0.68 2 0 2 C-0.66 3.98 -1.32 5.96 -2 8 C-3.98 7.34 -5.96 6.68 -8 6 C-8 5.01 -8 4.02 -8 3 C-6.865625 2.690625 -5.73125 2.38125 -4.5625 2.0625 C-1.21224901 1.37075469 -1.21224901 1.37075469 0 0 Z " fill="#01051E" transform="translate(305,268)"/>
<path d="M0 0 C3.29730597 4.12163246 6.79339998 8.5724498 7.25 13.9375 C7.12625 14.9584375 7.12625 14.9584375 7 16 C6.7525 15.443125 6.505 14.88625 6.25 14.3125 C5.00800235 11.84535202 5.00800235 11.84535202 2.875 9.375 C1 7 1 7 1 5 C0.01 4.67 -0.98 4.34 -2 4 C-1.34 2.68 -0.68 1.36 0 0 Z " fill="#FEE8CA" transform="translate(246,224)"/>
<path d="M0 0 C3.375 -0.125 3.375 -0.125 7 0 C9 2 9 2 9 5 C6.36 4.67 3.72 4.34 1 4 C1.33 3.01 1.66 2.02 2 1 C1.34 0.67 0.68 0.34 0 0 Z " fill="#0B0E17" transform="translate(223,293)"/>
<path d="M0 0 C0.66 0.33 1.32 0.66 2 1 C1.01 4.3 0.02 7.6 -1 11 C-1.99 11 -2.98 11 -4 11 C-4.33 11.66 -4.66 12.32 -5 13 C-4.67 11.35 -4.34 9.7 -4 8 C-3.34 8 -2.68 8 -2 8 C-1.7834375 6.576875 -1.7834375 6.576875 -1.5625 5.125 C-1 2 -1 2 0 0 Z " fill="#050A1C" transform="translate(345,279)"/>
<path d="M0 0 C1.32 0 2.64 0 4 0 C4 0.66 4 1.32 4 2 C3.34 2 2.68 2 2 2 C2.04125 3.051875 2.0825 4.10375 2.125 5.1875 C2.00852125 8.74010173 1.52791932 10.84866641 0 14 C-0.66 14 -1.32 14 -2 14 C-1.34 9.38 -0.68 4.76 0 0 Z " fill="#D39977" transform="translate(274,206)"/>
<path d="M0 0 C3 1 3 1 5 4 C5.70812814 6.32108669 6.38024152 8.65377147 7 11 C5.125 10.75 5.125 10.75 3 10 C0.85150175 6.9468709 0.49698389 3.64454851 0 0 Z " fill="#C5C3C6" transform="translate(136,273)"/>
<path d="M0 0 C0.66 0.33 1.32 0.66 2 1 C1.01 2.485 1.01 2.485 0 4 C-0.63292383 6.11280345 -0.63292383 6.11280345 -1 8 C-3.31 7.67 -5.62 7.34 -8 7 C-5.42215154 4.35247996 -3.08351902 2.05567935 0 0 Z " fill="#101322" transform="translate(340,230)"/>
<path d="M0 0 C1.5 1.25 1.5 1.25 3 3 C3 4.32 3 5.64 3 7 C-1.75 7.125 -1.75 7.125 -4 6 C-3.6875 4.125 -3.6875 4.125 -3 2 C-2.01 1.34 -1.02 0.68 0 0 Z " fill="#04091C" transform="translate(165,200)"/>
<path d="M0 0 C2.3431213 0.25561323 4.67843403 0.59270772 7 1 C7.33 1.66 7.66 2.32 8 3 C7.01 3 6.02 3 5 3 C5 3.66 5 4.32 5 5 C5.66 5 6.32 5 7 5 C7 5.66 7 6.32 7 7 C5.35 7 3.7 7 2 7 C2 5 2 3 2 1 C1.34 0.67 0.68 0.34 0 0 Z " fill="#726F76" transform="translate(191,368)"/>
<path d="M0 0 C0.66 0.66 1.32 1.32 2 2 C-0.97 4.97 -3.94 7.94 -7 11 C-7.33 10.01 -7.66 9.02 -8 8 C-7.01 7.67 -6.02 7.34 -5 7 C-4.7834375 6.071875 -4.7834375 6.071875 -4.5625 5.125 C-3.8127546 2.2926285 -2.40269349 1.55012483 0 0 Z " fill="#101423" transform="translate(294,320)"/>
<path d="M0 0 C2.97 0.33 5.94 0.66 9 1 C7.02 1.99 7.02 1.99 5 3 C4.67 3.66 4.34 4.32 4 5 C2.02 5 0.04 5 -2 5 C-1.34 3.35 -0.68 1.7 0 0 Z " fill="#030617" transform="translate(293,177)"/>
<path d="M0 0 C2.475 0.99 2.475 0.99 5 2 C5 1.34 5 0.68 5 0 C5.99 0.33 6.98 0.66 8 1 C7.34 2.98 6.68 4.96 6 7 C4.68 7 3.36 7 2 7 C1.34 4.69 0.68 2.38 0 0 Z " fill="#DDE0EC" transform="translate(250,172)"/>
<path d="M0 0 C0.99 0.33 1.98 0.66 3 1 C2.5 2.9375 2.5 2.9375 1 5 C-1.69658452 5.68790422 -4.2017019 5.81946464 -7 6 C-4.74259377 3.66475218 -2.7194239 1.81294927 0 0 Z " fill="#0C0C11" transform="translate(267,310)"/>
<path d="M0 0 C1.485 0.99 1.485 0.99 3 2 C2.67 2.33 2.34 2.66 2 3 C4.9254644 3.2236068 4.9254644 3.2236068 7 2 C6.25 6.75 6.25 6.75 4 9 C-0.00390625 4.60546875 -0.00390625 4.60546875 -1 3 C-0.67 2.01 -0.34 1.02 0 0 Z " fill="#171824" transform="translate(266,303)"/>
<path d="M0 0 C0.33 0 0.66 0 1 0 C1.33 2.64 1.66 5.28 2 8 C2.99 8.33 3.98 8.66 5 9 C2.64561267 10.42944945 1.51967567 11.08661261 -1.25 10.625 C-1.8275 10.41875 -2.405 10.2125 -3 10 C-2.690625 9.0925 -2.38125 8.185 -2.0625 7.25 C-1.2727737 4.83436662 -0.57050703 2.47219715 0 0 Z " fill="#CDD1D7" transform="translate(274,300)"/>
<path d="M0 0 C-0.33 1.32 -0.66 2.64 -1 4 C-3.31 4.33 -5.62 4.66 -8 5 C-7.01 4.34 -6.02 3.68 -5 3 C-5.99 2.34 -6.98 1.68 -8 1 C-4.93251126 -0.86240388 -3.40254489 -1.2151946 0 0 Z " fill="#17192F" transform="translate(288,176)"/>
<path d="M0 0 C-1.0625 2.5 -1.0625 2.5 -3 5 C-6.6875 5.3125 -6.6875 5.3125 -10 5 C-8.68 4.01 -7.36 3.02 -6 2 C-6.33 1.34 -6.66 0.68 -7 0 C-2.25 -1.125 -2.25 -1.125 0 0 Z " fill="#10142C" transform="translate(306,249)"/>
<path d="M0 0 C1.9375 0.3125 1.9375 0.3125 4 1 C4.33 1.99 4.66 2.98 5 4 C4.34 4.66 3.68 5.32 3 6 C3 5.34 3 4.68 3 4 C2.21625 4.515625 1.4325 5.03125 0.625 5.5625 C-0.24125 6.036875 -1.1075 6.51125 -2 7 C-2.66 6.67 -3.32 6.34 -4 6 C-3.67 5.34 -3.34 4.68 -3 4 C-2.34 4.33 -1.68 4.66 -1 5 C-0.67 3.35 -0.34 1.7 0 0 Z " fill="#0D132A" transform="translate(294,313)"/>
<path d="M0 0 C4.29 0 8.58 0 13 0 C11.35 1.65 9.7 3.3 8 5 C7.34 4.67 6.68 4.34 6 4 C6 3.34 6 2.68 6 2 C3.03 1.505 3.03 1.505 0 1 C0 0.67 0 0.34 0 0 Z " fill="#D8DBDE" transform="translate(256,308)"/>
<path d="M0 0 C1.98 0.99 3.96 1.98 6 3 C5.67 4.32 5.34 5.64 5 7 C3.68 7.33 2.36 7.66 1 8 C0.67 5.36 0.34 2.72 0 0 Z " fill="#EEF2F5" transform="translate(168,263)"/>
<path d="M0 0 C2.97 0.495 2.97 0.495 6 1 C3.53846154 4.81538462 3.53846154 4.81538462 0.8125 5.75 C0.214375 5.8325 -0.38375 5.915 -1 6 C-1 2 -1 2 0 0 Z " fill="#02061A" transform="translate(315,245)"/>
<path d="M0 0 C2.97 0.495 2.97 0.495 6 1 C2.34827367 3.26849666 -1.0127118 3.3895951 -5.25 3.625 C-6.51328125 3.69976562 -7.7765625 3.77453125 -9.078125 3.8515625 C-10.04234375 3.90054688 -11.0065625 3.94953125 -12 4 C-11.67 3.34 -11.34 2.68 -11 2 C-7.37 2 -3.74 2 0 2 C0 1.34 0 0.68 0 0 Z " fill="#D7AD85" transform="translate(286,241)"/>
<path d="M0 0 C0.99 0.33 1.98 0.66 3 1 C2.67 2.65 2.34 4.3 2 6 C0.35 6 -1.3 6 -3 6 C-3 4.68 -3 3.36 -3 2 C-2.01 1.34 -1.02 0.68 0 0 Z " fill="#DA915B" transform="translate(266,228)"/>
<path d="M0 0 C-1.38877354 3.35620271 -2.91677965 5.07298728 -6 7 C-6.66 7 -7.32 7 -8 7 C-6.53112033 2.34854772 -6.53112033 2.34854772 -4 0.6875 C-2 0 -2 0 0 0 Z " fill="#D4A378" transform="translate(322,227)"/>
<path d="M0 0 C0.66 0 1.32 0 2 0 C2 0.99 2 1.98 2 3 C2.99 3.33 3.98 3.66 5 4 C3.8125 5.5 3.8125 5.5 2 7 C-0.6875 7.1875 -0.6875 7.1875 -3 7 C-2.01 4.69 -1.02 2.38 0 0 Z " fill="#06091C" transform="translate(173,192)"/>
<path d="M0 0 C1.8871875 0.0309375 1.8871875 0.0309375 3.8125 0.0625 C3.8125 1.0525 3.8125 2.0425 3.8125 3.0625 C1.81295254 3.10504356 -0.18791636 3.10330783 -2.1875 3.0625 C-2.5175 2.7325 -2.8475 2.4025 -3.1875 2.0625 C-5.52694736 2.34980055 -7.8614143 2.68186779 -10.1875 3.0625 C-6.61118771 0.67829181 -4.20439261 -0.06892447 0 0 Z " fill="#E6A875" transform="translate(220.1875,194.9375)"/>
<path d="M0 0 C-0.66 1.32 -1.32 2.64 -2 4 C-4.875 3.6875 -4.875 3.6875 -8 3 C-8.66 2.01 -9.32 1.02 -10 0 C-6.33694766 -0.74926071 -3.57644848 -1.2380014 0 0 Z " fill="#191A2D" transform="translate(224,176)"/>
<path d="M0 0 C-2.6855594 2.6855594 -5.37621328 3.06049974 -9 4 C-9 2.68 -9 1.36 -9 0 C-5.52176885 -1.15941038 -3.54104422 -0.70820884 0 0 Z " fill="#111320" transform="translate(300,349)"/>
<path d="M0 0 C-0.33 0.66 -0.66 1.32 -1 2 C-4.96 2 -8.92 2 -13 2 C-12.67 1.34 -12.34 0.68 -12 0 C-10.0390625 -0.44921875 -10.0390625 -0.44921875 -7.625 -0.6875 C-6.43777344 -0.81705078 -6.43777344 -0.81705078 -5.2265625 -0.94921875 C-3 -1 -3 -1 0 0 Z " fill="#DADEE4" transform="translate(292,298)"/>
<path d="M0 0 C6.57142857 5 6.57142857 5 8 10 C5.525 9.01 5.525 9.01 3 8 C3 7.01 3 6.02 3 5 C2.01 5 1.02 5 0 5 C0 3.35 0 1.7 0 0 Z " fill="#171C2B" transform="translate(291,280)"/>
<path d="M0 0 C3.5 1.3125 3.5 1.3125 4.71875 3.39453125 C4.9765625 4.02746094 5.234375 4.66039062 5.5 5.3125 C4.03932801 4.86167531 2.58151968 4.40156463 1.125 3.9375 C0.31289062 3.68226563 -0.49921875 3.42703125 -1.3359375 3.1640625 C-3.5 2.3125 -3.5 2.3125 -5.5 0.3125 C-3.5 -0.6875 -3.5 -0.6875 0 0 Z " fill="#1A1D2B" transform="translate(183.5,250.6875)"/>
<path d="M0 0 C2.64 0.66 5.28 1.32 8 2 C7.67 2.99 7.34 3.98 7 5 C3.28400809 5.20086443 2.22791555 5.1519437 -1 3 C-0.67 2.01 -0.34 1.02 0 0 Z " fill="#00020A" transform="translate(278,303)"/>
<path d="M0 0 C0.66 1.32 1.32 2.64 2 4 C0.68 5.32 -0.64 6.64 -2 8 C-2.99 7.34 -3.98 6.68 -5 6 C-3.35 4.02 -1.7 2.04 0 0 Z " fill="#DFE1E8" transform="translate(219,289)"/>
<path d="M0 0 C2.97 0 5.94 0 9 0 C9 0.99 9 1.98 9 3 C8.34 3.66 7.68 4.32 7 5 C3.535 3.02 3.535 3.02 0 1 C0 0.67 0 0.34 0 0 Z " fill="#CBCCD6" transform="translate(323,184)"/>
<path d="M0 0 C-1.32 0.99 -2.64 1.98 -4 3 C-3.67 3.66 -3.34 4.32 -3 5 C-5.64 4.67 -8.28 4.34 -11 4 C-9.68 3.67 -8.36 3.34 -7 3 C-7.33 2.01 -7.66 1.02 -8 0 C-2.25 -1.125 -2.25 -1.125 0 0 Z " fill="#1F232F" transform="translate(304,179)"/>
<path d="M0 0 C1.32 0 2.64 0 4 0 C3.67 1.32 3.34 2.64 3 4 C3 3.01 3 2.02 3 1 C2.34 1 1.68 1 1 1 C1.5259375 1.86625 1.5259375 1.86625 2.0625 2.75 C3.14917407 5.35801776 2.93065133 6.39417629 2 9 C0.4375 7.3125 0.4375 7.3125 -1 5 C-0.6875 2.25 -0.6875 2.25 0 0 Z " fill="#25262B" transform="translate(218,298)"/>
<path d="M0 0 C0.33 0 0.66 0 1 0 C1.33 2.64 1.66 5.28 2 8 C0.35 8.66 -1.3 9.32 -3 10 C-3.33 8.35 -3.66 6.7 -4 5 C-2.68 5 -1.36 5 0 5 C0 3.35 0 1.7 0 0 Z " fill="#12182D" transform="translate(165,245)"/>
<path d="M0 0 C0.33 0.99 0.66 1.98 1 3 C0.34 3 -0.32 3 -1 3 C-1.33 4.98 -1.66 6.96 -2 9 C-3.98 9.33 -5.96 9.66 -8 10 C-7.04956626 8.66102417 -6.08940853 7.32894573 -5.125 6 C-4.59132813 5.2575 -4.05765625 4.515 -3.5078125 3.75 C-3.01023437 3.1725 -2.51265625 2.595 -2 2 C-1.34 2 -0.68 2 0 2 C0 1.34 0 0.68 0 0 Z " fill="#DBA67E" transform="translate(271,220)"/>
<path d="M0 0 C0.66 0.33 1.32 0.66 2 1 C1.67 1.99 1.34 2.98 1 4 C0.93334624 5.39439664 0.91461801 6.79169875 0.9375 8.1875 C0.958125 9.445625 0.97875 10.70375 1 12 C0.34 11.34 -0.32 10.68 -1 10 C-1 9.01 -1 8.02 -1 7 C-1.66 6.67 -2.32 6.34 -3 6 C-2.01 4.02 -1.02 2.04 0 0 Z " fill="#010519" transform="translate(162,209)"/>
<path d="M0 0 C0.33 0 0.66 0 1 0 C1.625 3.375 1.625 3.375 2 7 C1.34 7.66 0.68 8.32 0 9 C0.66 9.66 1.32 10.32 2 11 C0.35 10.67 -1.3 10.34 -3 10 C-2.01 6.7 -1.02 3.4 0 0 Z " fill="#A4A3A9" transform="translate(374,326)"/>
<path d="M0 0 C0.66 0.33 1.32 0.66 2 1 C2 1.66 2 2.32 2 3 C2.66 3 3.32 3 4 3 C4 4.32 4 5.64 4 7 C2.02 7 0.04 7 -2 7 C-1.67 6.21625 -1.34 5.4325 -1 4.625 C0.11866511 2.15667503 0.11866511 2.15667503 0 0 Z " fill="#050618" transform="translate(321,315)"/>
<path d="M0 0 C1.65 0 3.3 0 5 0 C5.33 0.66 5.66 1.32 6 2 C5.525625 2.45375 5.05125 2.9075 4.5625 3.375 C2.90972192 4.93258204 2.90972192 4.93258204 2 7 C1.01 6.67 0.02 6.34 -1 6 C-0.835 5.38125 -0.67 4.7625 -0.5 4.125 C0.07634644 2.03936614 0.07634644 2.03936614 0 0 Z " fill="#DBDEE5" transform="translate(231,293)"/>
<path d="M0 0 C1.32 1.32 2.64 2.64 4 4 C3.67 4.66 3.34 5.32 3 6 C0.9375 6.625 0.9375 6.625 -1 7 C-1 6.34 -1 5.68 -1 5 C-2.9600281 3.36323743 -2.9600281 3.36323743 -5 2 C-3.35 1.34 -1.7 0.68 0 0 Z " fill="#16182A" transform="translate(321,242)"/>
<path d="M0 0 C7.66742597 5.0022779 7.66742597 5.0022779 9 9 C5.65851561 7.82596494 3.18896282 6.84565166 1 4 C0.63546278 2.67485793 0.2981424 1.34164079 0 0 Z " fill="#D8A581" transform="translate(240,224)"/>
<path d="M0 0 C0.33 1.98 0.66 3.96 1 6 C-1.31 5.34 -3.62 4.68 -6 4 C-5.67 3.01 -5.34 2.02 -5 1 C-2 0 -2 0 0 0 Z " fill="#CFCED3" transform="translate(360,193)"/>
<path d="M0 0 C4.875 2.625 4.875 2.625 6 6 C0.25 4.25 0.25 4.25 -2 2 C-1.34 1.34 -0.68 0.68 0 0 Z " fill="#121425" transform="translate(207,346)"/>
<path d="M0 0 C2.31 0.33 4.62 0.66 7 1 C7 1.66 7 2.32 7 3 C7.99 3.66 8.98 4.32 10 5 C7.25 5.3125 7.25 5.3125 4 5 C1.625 2.5 1.625 2.5 0 0 Z " fill="#000316" transform="translate(295,342)"/>
<path d="M0 0 C1.65 0 3.3 0 5 0 C5 0.99 5 1.98 5 3 C5.66 3.33 6.32 3.66 7 4 C5.68 5.32 4.36 6.64 3 8 C2.06576355 4.98968256 1.95550089 4.13349732 3 1 C2.01 0.67 1.02 0.34 0 0 Z " fill="#010417" transform="translate(335,238)"/>
<path d="M0 0 C0.66 0 1.32 0 2 0 C0.50902342 3.7952131 -1.75700849 5.61042731 -5 8 C-4.67 6.02 -4.34 4.04 -4 2 C-2.68 2 -1.36 2 0 2 C0 1.34 0 0.68 0 0 Z " fill="#FEF5D9" transform="translate(190,204)"/>
<path d="M0 0 C-3.465 2.97 -3.465 2.97 -7 6 C-7.33 4.35 -7.66 2.7 -8 1 C-2.25 -1.125 -2.25 -1.125 0 0 Z " fill="#F2F2F8" transform="translate(170,194)"/>
<path d="M0 0 C2.475 0.495 2.475 0.495 5 1 C5.33 1.99 5.66 2.98 6 4 C5.34 4.66 4.68 5.32 4 6 C2.62437146 4.71034824 1.29233607 3.37310707 0 2 C0 1.34 0 0.68 0 0 Z " fill="#87858E" transform="translate(362,346)"/>
<path d="M0 0 C4.75 1.875 4.75 1.875 7 3 C6.67 3.99 6.34 4.98 6 6 C5.01 6 4.02 6 3 6 C3 5.34 3 4.68 3 4 C2.34 4 1.68 4 1 4 C0.67 2.68 0.34 1.36 0 0 Z " fill="#010419" transform="translate(202,270)"/>
<path d="M0 0 C1.15392455 2.3078491 1.53437166 4.47230331 2 7 C1.01 7.33 0.02 7.66 -1 8 C-1.33 8.99 -1.66 9.98 -2 11 C-2.25 3.375 -2.25 3.375 0 0 Z " fill="#010518" transform="translate(342,258)"/>
<path d="M0 0 C-1.5 1.5625 -1.5 1.5625 -4 3 C-6.77437543 2.96823234 -9.25286467 2.50364148 -12 2 C-7.72170329 -0.29194467 -4.74957752 -1.52664992 0 0 Z " fill="#FBE9DA" transform="translate(300,242)"/>
<path d="M0 0 C0 3.10551666 -0.5393715 4.35261084 -2 7 C-3.32 7 -4.64 7 -6 7 C-4.77065985 3.31197956 -3.06140622 2.27643027 0 0 Z " fill="#11131F" transform="translate(308,328)"/>
<path d="M0 0 C1 2 1 2 0.25 4.5625 C-1 7 -1 7 -4 8 C-3.40138258 5.64828869 -2.73075648 3.3140622 -2 1 C-1.34 0.67 -0.68 0.34 0 0 Z " fill="#B2B4BB" transform="translate(349,279)"/>
<path d="M0 0 C-1.75 4.875 -1.75 4.875 -4 6 C-4.99 5.34 -5.98 4.68 -7 4 C-6.34 3.67 -5.68 3.34 -5 3 C-5.33 2.34 -5.66 1.68 -6 1 C-3 0 -3 0 0 0 Z " fill="#181B2E" transform="translate(315,265)"/>
<path d="M0 0 C2.97 0.495 2.97 0.495 6 1 C4.35 2.65 2.7 4.3 1 6 C0.67 4.02 0.34 2.04 0 0 Z " fill="#CECED1" transform="translate(136,208)"/>
<path d="M0 0 C0.99 0 1.98 0 3 0 C2.67 2.31 2.34 4.62 2 7 C1.01 7 0.02 7 -1 7 C-0.67 4.69 -0.34 2.38 0 0 Z " fill="#FEF4DB" transform="translate(243,201)"/>
<path d="M0 0 C2.2477975 2.05233685 3.0022242 3.00667261 4 6 C3.01 6.99 2.02 7.98 1 9 C-1.125 2.25 -1.125 2.25 0 0 Z " fill="#A4A3A8" transform="translate(138,333)"/>
<path d="M0 0 C1.32 0 2.64 0 4 0 C4 0.99 4 1.98 4 3 C4.99 3.33 5.98 3.66 7 4 C6.67 4.99 6.34 5.98 6 7 C1.125 2.25 1.125 2.25 0 0 Z " fill="#141C25" transform="translate(182,318)"/>
<path d="M0 0 C2.49361571 1.20381448 4.68143083 2.45428722 7 4 C4.6875 4.6875 4.6875 4.6875 2 5 C0.1875 3.5625 0.1875 3.5625 -1 2 C-0.67 1.34 -0.34 0.68 0 0 Z " fill="#020218" transform="translate(208,178)"/>
<path d="M0 0 C0.33 0.66 0.66 1.32 1 2 C1.66 2 2.32 2 3 2 C3.625 3.875 3.625 3.875 4 6 C3.34 6.66 2.68 7.32 2 8 C0.02 4.535 0.02 4.535 -2 1 C-1.34 0.67 -0.68 0.34 0 0 Z " fill="#171A27" transform="translate(192,327)"/>
<path d="M0 0 C2.97 0 5.94 0 9 0 C8.67 1.32 8.34 2.64 8 4 C7.01 3.67 6.02 3.34 5 3 C5.33 2.34 5.66 1.68 6 1 C4.02 1 2.04 1 0 1 C0 0.67 0 0.34 0 0 Z " fill="#373940" transform="translate(280,304)"/>
<path d="M0 0 C1.32 0.33 2.64 0.66 4 1 C3.34 2.98 2.68 4.96 2 7 C0 5 0 5 -0.125 2.375 C-0.08375 1.59125 -0.0425 0.8075 0 0 Z " fill="#232431" transform="translate(232,300)"/>
<path d="M0 0 C3.3 0.99 6.6 1.98 10 3 C10 3.33 10 3.66 10 4 C7.36 4 4.72 4 2 4 C1.34 2.68 0.68 1.36 0 0 Z " fill="#FAECDA" transform="translate(198,237)"/>
<path d="M0 0 C0.66 0.33 1.32 0.66 2 1 C2 1.66 2 2.32 2 3 C-0.35438733 4.42944945 -1.48032433 5.08661261 -4.25 4.625 C-4.8275 4.41875 -5.405 4.2125 -6 4 C-4.02 2.68 -2.04 1.36 0 0 Z " fill="#DAA17A" transform="translate(262,230)"/>
<path d="M0 0 C0.66 0 1.32 0 2 0 C3 3 3 3 2.0625 5.1875 C1.5365625 6.0846875 1.5365625 6.0846875 1 7 C0.34 7 -0.32 7 -1 7 C-1 6.34 -1 5.68 -1 5 C-1.66 4.67 -2.32 4.34 -3 4 C-2.505 3.525625 -2.01 3.05125 -1.5 2.5625 C0.11542197 1.24076302 0.11542197 1.24076302 0 0 Z " fill="#020517" transform="translate(341,229)"/>
<path d="M0 0 C2.64 0 5.28 0 8 0 C8 0.66 8 1.32 8 2 C8.99 2.33 9.98 2.66 11 3 C9 4 9 4 6.8359375 3.44140625 C6.02382813 3.15136719 5.21171875 2.86132812 4.375 2.5625 C3.55773437 2.27503906 2.74046875 1.98757812 1.8984375 1.69140625 C1.27195312 1.46324219 0.64546875 1.23507813 0 1 C0 0.67 0 0.34 0 0 Z " fill="#F7D8B0" transform="translate(296,197)"/>
<path d="M0 0 C-0.66 1.98 -1.32 3.96 -2 6 C-3.65 4.68 -5.3 3.36 -7 2 C-2.25 0 -2.25 0 0 0 Z " fill="#D9A176" transform="translate(275,198)"/>
<path d="M0 0 C1.98 0 3.96 0 6 0 C4.3545622 1.68762851 2.68711423 3.3540349 1 5 C0.67 5 0.34 5 0 5 C0 3.35 0 1.7 0 0 Z " fill="#E6955E" transform="translate(256,198)"/>
<path d="M0 0 C0 3 0 3 -1 5 C0.32 5.66 1.64 6.32 3 7 C1 7 -1 7 -3 7 C-3.1875 4.625 -3.1875 4.625 -3 2 C-2.01 1.34 -1.02 0.68 0 0 Z " fill="#101629" transform="translate(177,189)"/>
<path d="M0 0 C0.99 0.66 1.98 1.32 3 2 C3 3.32 3 4.64 3 6 C1.35 5.67 -0.3 5.34 -2 5 C-1.34 3.35 -0.68 1.7 0 0 Z " fill="#00061D" transform="translate(178,189)"/>
<path d="M0 0 C2.75 0.25 2.75 0.25 5 1 C4.67 1.99 4.34 2.98 4 4 C1.36 4 -1.28 4 -4 4 C-2.3125 1.9375 -2.3125 1.9375 0 0 Z " fill="#010215" transform="translate(222,177)"/>
<path d="M0 0 C-0.33 1.65 -0.66 3.3 -1 5 C-2.65 4.67 -4.3 4.34 -6 4 C-2.25 0 -2.25 0 0 0 Z " fill="#939297" transform="translate(369,342)"/>
<path d="M0 0 C0.66 0.33 1.32 0.66 2 1 C0.35 3.64 -1.3 6.28 -3 9 C-3.33 7.68 -3.66 6.36 -4 5 C-2.0625 2.25 -2.0625 2.25 0 0 Z " fill="#DFE2E8" transform="translate(326,304)"/>
<path d="M0 0 C0.99 0.33 1.98 0.66 3 1 C1.25 5.875 1.25 5.875 -1 7 C-1.625 5.1875 -1.625 5.1875 -2 3 C-1.34 2.01 -0.68 1.02 0 0 Z " fill="#212332" transform="translate(270,295)"/>
<path d="M0 0 C0.93065133 2.60582371 1.14917407 3.64198224 0.0625 6.25 C-0.4634375 7.11625 -0.4634375 7.11625 -1 8 C-2 7 -2 7 -2.0625 3.9375 C-2.041875 2.968125 -2.02125 1.99875 -2 1 C-1.34 0.67 -0.68 0.34 0 0 Z " fill="#01061C" transform="translate(341,271)"/>
<path d="M0 0 C0.66 0.33 1.32 0.66 2 1 C2 1.66 2 2.32 2 3 C-1.465 4.485 -1.465 4.485 -5 6 C-5 5.01 -5 4.02 -5 3 C-3.35 2.67 -1.7 2.34 0 2 C0 1.34 0 0.68 0 0 Z " fill="#05090F" transform="translate(337,261)"/>
<path d="M0 0 C-0.66 1.65 -1.32 3.3 -2 5 C-3.65 3.68 -5.3 2.36 -7 1 C-4.50935112 0.31292445 -2.62113708 0 0 0 Z " fill="#C4C3C9" transform="translate(384,258)"/>
<path d="M0 0 C1.32 0.66 2.64 1.32 4 2 C0.04 3.98 0.04 3.98 -4 6 C-2 2 -2 2 0 0 Z " fill="#E7E9EB" transform="translate(334,253)"/>
<path d="M0 0 C1.9375 0.3125 1.9375 0.3125 4 1 C4.33 1.99 4.66 2.98 5 4 C4.34 4.66 3.68 5.32 3 6 C2.67 5.34 2.34 4.68 2 4 C1.34 4 0.68 4 0 4 C0 2.68 0 1.36 0 0 Z " fill="#DE9459" transform="translate(320,215)"/>
<path d="M0 0 C0.33 0.66 0.66 1.32 1 2 C1.66 2.33 2.32 2.66 3 3 C1.35 4.65 -0.3 6.3 -2 8 C-1.125 2.25 -1.125 2.25 0 0 Z " fill="#212433" transform="translate(156,210)"/>
<path d="M0 0 C0.99 0 1.98 0 3 0 C3.66 1.98 4.32 3.96 5 6 C3.68 5.67 2.36 5.34 1 5 C0.67 3.35 0.34 1.7 0 0 Z " fill="#0E1528" transform="translate(348,206)"/>
<path d="M0 0 C0.66 0.33 1.32 0.66 2 1 C0.9024777 3.99324263 0.32317108 4.84610901 -2.625 6.25 C-3.40875 6.4975 -4.1925 6.745 -5 7 C-3.70700306 4.11562221 -2.34058637 2.12780579 0 0 Z " fill="#E4B785" transform="translate(191,206)"/>
</svg>
